<svg width="100" height="100" viewBox="0 0 100 100" fill="none" xmlns="http://www.w3.org/2000/svg">
<rect width="100" height="100" rx="20" fill="url(#paint0_linear_12_27)"/>
<path d="M69.5043 48.3654H30.8916C28.1942 48.3654 26 50.5597 26 53.257V70.1088C26 72.8058 28.1942 75 30.8916 75H69.5043C72.2016 75 74.3959 72.8058 74.3959 70.1088V53.257C74.3959 50.5597 72.2016 48.3654 69.5043 48.3654ZM71.4662 70.1088C71.4662 71.1903 70.5861 72.0703 69.5043 72.0703H30.8916C29.8097 72.0703 28.9297 71.1903 28.9297 70.1088V53.257C28.9297 52.1752 29.8097 51.2951 30.8916 51.2951H69.5043C70.5861 51.2951 71.4662 52.1752 71.4662 53.257V70.1088Z" fill="white"/>
<path d="M50.2018 40.6879C51.3657 40.6879 52.5295 40.2458 53.4157 39.3611C54.2752 38.5036 54.7482 37.363 54.7482 36.1496C54.7482 34.9361 54.2752 33.7955 53.4157 32.938C51.6434 31.1691 48.7599 31.1691 46.9876 32.938C46.1281 33.7955 45.6551 34.9361 45.6551 36.1496C45.6551 37.363 46.1281 38.5036 46.9876 39.3611C47.8737 40.2458 49.0376 40.6879 50.2018 40.6879ZM49.057 35.0113C49.3729 34.6962 49.7872 34.539 50.2018 34.539C50.6161 34.539 51.0304 34.6965 51.3458 35.0113C51.6506 35.3153 51.8185 35.7196 51.8185 36.1496C51.8185 36.5795 51.6506 36.9834 51.3462 37.2879C50.7149 37.9177 49.6884 37.9173 49.057 37.2879C48.7522 36.9834 48.5848 36.5795 48.5848 36.1496C48.5848 35.7196 48.7526 35.3157 49.057 35.0113Z" fill="white"/>
<path d="M55.5544 42.5543C55.8405 42.8412 56.2159 42.9846 56.5912 42.9846C56.9658 42.9846 57.34 42.842 57.6262 42.5566C59.3409 40.845 60.2854 38.5695 60.2854 36.1487C60.2854 33.7279 59.3409 31.4521 57.6262 29.7408C57.0536 29.1693 56.1258 29.1701 55.5544 29.7427C54.983 30.3153 54.9841 31.243 55.5567 31.8145C56.7167 32.9722 57.3557 34.5114 57.3557 36.1487C57.3557 37.7856 56.7167 39.3252 55.5567 40.483C54.9841 41.0544 54.983 41.9818 55.5544 42.5543Z" fill="white"/>
<path d="M42.7696 42.557C43.0557 42.8423 43.4299 42.985 43.8045 42.985C44.1799 42.985 44.5552 42.8415 44.8413 42.5547C45.4128 41.9821 45.4116 41.0547 44.839 40.4833C43.679 39.3252 43.04 37.7859 43.04 36.1487C43.04 34.5118 43.679 32.9725 44.839 31.8144C45.4116 31.243 45.4128 30.3156 44.8413 29.743C44.2699 29.1701 43.3422 29.1693 42.7696 29.7407C41.0549 31.4524 40.1107 33.7279 40.1104 36.1487C40.1104 38.5695 41.0549 40.8453 42.7696 42.557Z" fill="white"/>
<path d="M38.7334 66.2088H34.8013V55.6921C34.8013 54.883 34.1455 54.2272 33.3364 54.2272C32.5273 54.2272 31.8716 54.883 31.8716 55.6921V67.6737C31.8716 68.4828 32.5273 69.1385 33.3364 69.1385H38.7334C39.5422 69.1385 40.1983 68.4828 40.1983 67.6737C40.1983 66.8649 39.5422 66.2088 38.7334 66.2088Z" fill="white"/>
<path d="M43.2717 54.2272C42.4626 54.2272 41.8068 54.883 41.8068 55.6921V67.6737C41.8068 68.4828 42.4626 69.1385 43.2717 69.1385C44.0804 69.1385 44.7365 68.4828 44.7365 67.6737V55.6921C44.7365 54.883 44.0804 54.2272 43.2717 54.2272Z" fill="white"/>
<path d="M56.0823 54.289C55.3083 54.0551 54.4904 54.4934 54.2566 55.2678L52.0418 62.6046L49.8266 55.2678C49.5927 54.4931 48.7752 54.0551 48.0009 54.289C47.2265 54.5228 46.7882 55.3403 47.022 56.1147L50.6395 68.0962C50.6399 68.0974 50.6403 68.0985 50.6406 68.0997C51.0393 69.3753 53.0031 69.4528 53.4429 68.0997C53.4433 68.0985 53.4437 68.0978 53.4441 68.0962L57.0615 56.1147C57.2954 55.3399 56.8567 54.5228 56.0823 54.289Z" fill="white"/>
<path d="M67.0594 57.1569C67.8685 57.1569 68.5243 56.5012 68.5243 55.6921C68.5243 54.883 67.8685 54.2272 67.0594 54.2272H60.4512C59.6421 54.2272 58.9864 54.883 58.9864 55.6921V67.6737C58.9864 68.4828 59.6421 69.1385 60.4512 69.1385H66.8622C67.6713 69.1385 68.327 68.4828 68.327 67.6737C68.327 66.8649 67.6713 66.2088 66.8622 66.2088H61.9161V62.3934H66.0729C66.882 62.3934 67.5378 61.7376 67.5378 60.9285C67.5378 60.1194 66.882 59.4637 66.0729 59.4637H61.9161V57.1569H67.0594Z" fill="white"/>
<path d="M62.4588 36.1489C62.4588 39.415 61.1843 42.4862 58.87 44.796C58.2974 45.3674 58.2962 46.2952 58.8677 46.8678C59.1542 47.1543 59.5292 47.2977 59.9045 47.2977C60.2791 47.2977 60.6533 47.155 60.9394 46.8697C63.8085 44.0064 65.3885 40.1989 65.3885 36.1489C65.3885 32.0992 63.8085 28.2914 60.9394 25.4281C60.3669 24.8566 59.4395 24.8574 58.8677 25.43C58.2962 26.0025 58.2974 26.9303 58.87 27.5017C61.1843 29.8115 62.4588 32.8823 62.4588 36.1489Z" fill="white"/>
<path d="M40.4913 47.298C40.8666 47.298 41.242 47.1546 41.5281 46.8681C42.0995 46.2955 42.0988 45.3678 41.5258 44.7963C39.2114 42.4865 37.9369 39.4153 37.9369 36.1488C37.9369 32.8827 39.2114 29.8115 41.5258 27.5017C42.0984 26.9302 42.0995 26.0025 41.5281 25.4303C40.9563 24.8573 40.0289 24.8566 39.4563 25.428C36.5873 28.2917 35.0073 32.0991 35.0073 36.1488C35.0073 40.1989 36.5873 44.0063 39.4563 46.87C39.7424 47.1554 40.1167 47.298 40.4913 47.298Z" fill="white"/>
<defs>
<linearGradient id="paint0_linear_12_27" x1="50" y1="148.5" x2="50" y2="-65.5" gradientUnits="userSpaceOnUse">
<stop stop-color="#2F61E6"/>
<stop offset="1" stop-color="#96D1FF"/>
</linearGradient>
</defs>
</svg>
