<svg width="100" height="100" viewBox="0 0 100 100" fill="none" xmlns="http://www.w3.org/2000/svg">
<rect width="100" height="100" rx="20" fill="url(#paint0_linear_297_6)"/>
<path d="M74.5455 25H24.5455C23.3403 25.0014 22.185 25.4807 21.3328 26.3328C20.4807 27.185 20.0014 28.3403 20 29.5455V70.4548C20 71.0518 20.1176 71.6428 20.3461 72.1943C20.5746 72.7457 20.9094 73.2468 21.3315 73.6689C21.7536 74.0909 22.2548 74.4257 22.8062 74.6541C23.3577 74.8825 23.9488 75 24.5457 75L28.3497 74.9997C28.7795 74.9996 29.2004 74.8777 29.5636 74.648C29.9269 74.4184 30.2176 74.0904 30.402 73.7023C31.5088 71.3704 33.2544 69.4003 35.4361 68.0209C37.6178 66.6414 40.1461 65.9092 42.7273 65.9092C45.3085 65.9092 47.8367 66.6414 50.0184 68.0209C52.2001 69.4003 53.9457 71.3704 55.0526 73.7023C55.237 74.0905 55.5277 74.4184 55.891 74.6481C56.2543 74.8777 56.6753 74.9997 57.1051 74.9997L74.5455 75C75.7506 74.9986 76.9059 74.5193 77.7581 73.6672C78.6102 72.815 79.0896 71.6597 79.0909 70.4545V29.5455C79.0896 28.3403 78.6102 27.185 77.7581 26.3328C76.9059 25.4807 75.7506 25.0014 74.5455 25ZM35.9091 54.5455C35.9091 53.1969 36.309 51.8787 37.0582 50.7575C37.8074 49.6362 38.8722 48.7623 40.1181 48.2463C41.3639 47.7302 42.7348 47.5952 44.0574 47.8583C45.38 48.1214 46.5949 48.7707 47.5485 49.7243C48.502 50.6778 49.1514 51.8927 49.4144 53.2153C49.6775 54.5379 49.5425 55.9088 49.0265 57.1547C48.5104 58.4005 47.6365 59.4654 46.5153 60.2146C45.394 60.9638 44.0758 61.3636 42.7273 61.3636C40.9196 61.3616 39.1866 60.6426 37.9083 59.3644C36.6301 58.0862 35.9111 56.3531 35.9091 54.5455ZM74.5455 70.4545L58.4756 70.4543C56.5771 67.1912 53.7156 64.5956 50.2835 63.0233C52.0041 61.4915 53.2185 59.4729 53.7657 57.2352C54.3129 54.9975 54.167 52.6463 53.3475 50.4934C52.528 48.3404 51.0735 46.4874 49.1768 45.1799C47.2802 43.8724 45.0309 43.1723 42.7273 43.1723C40.4236 43.1723 38.1744 43.8724 36.2777 45.1799C34.381 46.4874 32.9265 48.3404 32.107 50.4934C31.2875 52.6463 31.1417 54.9975 31.6889 57.2352C32.2361 59.4729 33.4505 61.4915 35.171 63.0233C31.7389 64.5957 28.8774 67.1915 26.979 70.4545H24.5455V29.5455H74.5455V70.4545ZM29.0909 40.9091V36.3636C29.0909 35.7609 29.3304 35.1828 29.7566 34.7566C30.1828 34.3304 30.7609 34.0909 31.3636 34.0909H67.7273C68.33 34.0909 68.9081 34.3304 69.3343 34.7566C69.7606 35.1828 70 35.7609 70 36.3636V63.6364C70 64.2391 69.7606 64.8172 69.3343 65.2434C68.9081 65.6696 68.33 65.9091 67.7273 65.9091H63.1818C62.5791 65.9091 62.001 65.6696 61.5748 65.2434C61.1485 64.8172 60.9091 64.2391 60.9091 63.6364C60.9091 63.0336 61.1485 62.4555 61.5748 62.0293C62.001 61.6031 62.5791 61.3636 63.1818 61.3636H65.4545V38.6364H33.6364V40.9091C33.6364 41.5119 33.3969 42.0899 32.9707 42.5162C32.5445 42.9424 31.9664 43.1818 31.3636 43.1818C30.7609 43.1818 30.1828 42.9424 29.7566 42.5162C29.3304 42.0899 29.0909 41.5119 29.0909 40.9091Z" fill="white"/>
<defs>
<linearGradient id="paint0_linear_297_6" x1="50" y1="100" x2="50" y2="-25.5" gradientUnits="userSpaceOnUse">
<stop stop-color="#A734FF"/>
<stop offset="1" stop-color="#D092FF"/>
</linearGradient>
</defs>
</svg>
