<svg width="100" height="100" viewBox="0 0 100 100" fill="none" xmlns="http://www.w3.org/2000/svg">
<rect width="100" height="100" rx="20" fill="url(#paint0_linear_297_7)"/>
<path d="M33.0494 25L30.4021 27.6436L34.3411 31.5807L36.9846 28.9371L33.0475 25H33.0494ZM67.5979 25L63.6589 28.9371L66.3044 31.5807L70.2415 27.6454L67.5961 25H67.5979ZM50.3227 26.1732C49.7023 26.1808 49.0743 26.2165 48.4425 26.2936C48.4237 26.2936 48.4049 26.2898 48.3861 26.2936C40.76 27.1679 34.6908 33.3293 33.636 40.9215C32.7937 47.0321 35.3131 52.573 39.5116 56.1417C41.229 57.6073 42.3906 59.6186 42.8019 61.8386V73.1198H47.0888C47.7431 74.2423 48.937 75 50.3227 75C51.7084 75 52.9023 74.2423 53.5566 73.1198H57.8435V65.599H58.0202V63.3654C58.0202 60.609 59.4529 57.8301 61.7806 55.6697C64.8942 52.5524 67.2445 48.1245 67.2445 43.0386C67.2445 33.7504 59.5996 26.0868 50.3227 26.1732ZM50.3227 29.9336C57.5897 29.8321 63.4841 35.781 63.4841 43.0386C63.4841 46.9757 61.6603 50.4428 59.1352 52.966L59.1954 53.0262C56.686 55.3401 55.0634 58.4577 54.6077 61.8405H46.3837C45.9701 58.6179 44.5881 55.4986 41.9765 53.2612C38.6542 50.4409 36.6744 46.1917 37.3362 41.3934C38.1579 35.4708 42.9636 30.7083 48.8524 30.0558C49.3386 29.9881 49.8282 29.9479 50.319 29.9355L50.3227 29.9336ZM24 43.0386V46.799H29.6406V43.0386H24ZM71.0048 43.0386V46.799H76.6454V43.0386H71.0048ZM34.3411 58.2569L30.4039 62.1921L33.0494 64.8375L36.9827 60.9004L34.3411 58.2569ZM66.3044 58.2569L63.6608 60.9004L67.5961 64.8375L70.2415 62.1921L66.3044 58.2569ZM46.5623 65.6009H54.0831V69.3613H46.5623V65.6009Z" fill="white"/>
<defs>
<linearGradient id="paint0_linear_297_7" x1="50" y1="0" x2="50" y2="100" gradientUnits="userSpaceOnUse">
<stop stop-color="#A590F9"/>
<stop offset="1" stop-color="#6A45FB"/>
</linearGradient>
</defs>
</svg>
