<svg width="126" height="40" viewBox="0 0 126 40" fill="none" xmlns="http://www.w3.org/2000/svg">
<g clip-path="url(#clip0_20_225)">
<path d="M21.1891 21.1647C21.2203 18.6971 22.4895 16.4178 24.552 15.1253C23.2449 13.2226 21.1342 12.0595 18.8565 11.9869C16.4602 11.7305 14.137 13.4485 12.9159 13.4485C11.6712 13.4485 9.79105 12.0124 7.76649 12.0548C5.10268 12.1425 2.6795 13.6488 1.38351 16.0226C-1.37636 20.8931 0.682253 28.0509 3.32598 31.9878C4.64869 33.9156 6.19456 36.069 8.2173 35.9926C10.1967 35.909 10.9359 34.7061 13.3252 34.7061C15.6923 34.7061 16.3859 35.9926 18.4497 35.9441C20.5736 35.9089 21.9118 34.0077 23.1881 32.0617C24.1385 30.6881 24.8698 29.1699 25.3549 27.5635C22.8323 26.476 21.192 23.9565 21.1891 21.1647Z" fill="#203A59"/>
<path d="M17.291 9.3977C18.4491 7.98067 19.0196 6.15932 18.8814 4.32043C17.1122 4.50985 15.4778 5.37175 14.3041 6.73441C13.1451 8.07886 12.558 9.83776 12.672 11.6237C14.465 11.6425 16.1674 10.8221 17.291 9.3977Z" fill="#203A59"/>
</g>
<path d="M41.3942 35L42.3658 32.0149H47.0895L48.0611 35H51.027L46.5142 21.9091H42.9474L38.4283 35H41.3942ZM43.0689 29.8544L44.6797 24.9006H44.782L46.3928 29.8544H43.0689ZM52.5515 38.6818H55.2745V33.4276H55.3576C55.7347 34.2457 56.5593 35.1598 58.1445 35.1598C60.3817 35.1598 62.1268 33.3892 62.1268 30.1037C62.1268 26.7287 60.305 25.054 58.1509 25.054C56.5082 25.054 55.7219 26.032 55.3576 26.831H55.2362V25.1818H52.5515V38.6818ZM55.217 30.0909C55.217 28.3395 55.9585 27.2209 57.2816 27.2209C58.6303 27.2209 59.3462 28.3906 59.3462 30.0909C59.3462 31.804 58.6175 32.9929 57.2816 32.9929C55.9712 32.9929 55.217 31.8423 55.217 30.0909ZM63.9421 38.6818H66.6651V33.4276H66.7482C67.1254 34.2457 67.9499 35.1598 69.5352 35.1598C71.7724 35.1598 73.5174 33.3892 73.5174 30.1037C73.5174 26.7287 71.6957 25.054 69.5415 25.054C67.8988 25.054 67.1126 26.032 66.7482 26.831H66.6268V25.1818H63.9421V38.6818ZM66.6076 30.0909C66.6076 28.3395 67.3491 27.2209 68.6722 27.2209C70.021 27.2209 70.7369 28.3906 70.7369 30.0909C70.7369 31.804 70.0082 32.9929 68.6722 32.9929C67.3619 32.9929 66.6076 31.8423 66.6076 30.0909ZM86.6515 25.674H89.3042C89.2658 23.3409 87.3482 21.7301 84.4334 21.7301C81.5634 21.7301 79.4604 23.3153 79.4732 25.6932C79.4668 27.6236 80.8283 28.7294 83.04 29.2599L84.4654 29.6179C85.8908 29.9631 86.6834 30.3722 86.6898 31.2543C86.6834 32.2131 85.7757 32.8651 84.3695 32.8651C82.9313 32.8651 81.8958 32.2003 81.8063 30.8899H79.128C79.1983 33.7216 81.2246 35.1854 84.4015 35.1854C87.5975 35.1854 89.4767 33.6577 89.4831 31.2607C89.4767 29.081 87.834 27.924 85.5584 27.4126L84.3823 27.1314C83.2445 26.8693 82.2921 26.4474 82.3113 25.5078C82.3113 24.6641 83.0591 24.044 84.4142 24.044C85.7374 24.044 86.5492 24.6449 86.6515 25.674ZM96.516 25.1818H94.6687V22.8295H91.9457V25.1818H90.6033V27.2273H91.9457V32.3409C91.9329 34.2649 93.2433 35.2173 95.2184 35.1342C95.9215 35.1087 96.4201 34.968 96.695 34.8786L96.2667 32.8523C96.1325 32.8778 95.8448 32.9418 95.5891 32.9418C95.0458 32.9418 94.6687 32.7372 94.6687 31.983V27.2273H96.516V25.1818ZM102.62 35.1918C105.599 35.1918 107.453 33.1527 107.453 30.1293C107.453 27.0866 105.599 25.054 102.62 25.054C99.6417 25.054 97.788 27.0866 97.788 30.1293C97.788 33.1527 99.6417 35.1918 102.62 35.1918ZM102.633 33.0824C101.259 33.0824 100.556 31.8232 100.556 30.1101C100.556 28.397 101.259 27.1314 102.633 27.1314C103.982 27.1314 104.685 28.397 104.685 30.1101C104.685 31.8232 103.982 33.0824 102.633 33.0824ZM109.223 35H111.946V29.4453C111.946 28.2372 112.828 27.4062 114.03 27.4062C114.407 27.4062 114.925 27.4702 115.181 27.5533V25.1371C114.938 25.0795 114.599 25.0412 114.324 25.0412C113.225 25.0412 112.324 25.6804 111.966 26.8949H111.863V25.1818H109.223V35ZM120.606 35.1918C123.035 35.1918 124.671 34.0092 125.055 32.1875L122.536 32.0213C122.262 32.7692 121.558 33.1591 120.651 33.1591C119.289 33.1591 118.426 32.2578 118.426 30.794V30.7876H125.112V30.0398C125.112 26.7031 123.093 25.054 120.497 25.054C117.608 25.054 115.735 27.1058 115.735 30.1357C115.735 33.2486 117.583 35.1918 120.606 35.1918ZM118.426 29.1001C118.484 27.9815 119.334 27.0866 120.542 27.0866C121.725 27.0866 122.543 27.9304 122.549 29.1001H118.426Z" fill="#203A59"/>
<path d="M45.125 13C47.3409 13 48.5909 11.6222 48.5909 9.34943C48.5909 7.09091 47.3409 5.72727 45.2244 5.72727H42.8807V13H45.125ZM43.7614 12.2188V6.50852H45.1676C46.8722 6.50852 47.7386 7.58807 47.7386 9.34943C47.7386 11.125 46.8722 12.2188 45.0682 12.2188H43.7614ZM52.1705 13.1136C53.6477 13.1136 54.642 11.9915 54.642 10.3011C54.642 8.59659 53.6477 7.47443 52.1705 7.47443C50.6932 7.47443 49.6989 8.59659 49.6989 10.3011C49.6989 11.9915 50.6932 13.1136 52.1705 13.1136ZM52.1705 12.3608C51.0483 12.3608 50.5369 11.3949 50.5369 10.3011C50.5369 9.20739 51.0483 8.22727 52.1705 8.22727C53.2926 8.22727 53.804 9.20739 53.804 10.3011C53.804 11.3949 53.2926 12.3608 52.1705 12.3608ZM56.9716 13H57.7955L58.9886 8.80966H59.0739L60.267 13H61.0909L62.7528 7.54545H61.8722L60.6932 11.7074H60.6364L59.4858 7.54545H58.5909L57.4261 11.7216H57.3693L56.1903 7.54545H55.3097L56.9716 13ZM64.6989 9.71875C64.6989 8.76705 65.2884 8.22727 66.0909 8.22727C66.8686 8.22727 67.3409 8.73509 67.3409 9.59091V13H68.179V9.53409C68.179 8.14205 67.4368 7.47443 66.3324 7.47443C65.5085 7.47443 64.9972 7.84375 64.7415 8.39773H64.6705V7.54545H63.8608V13H64.6989V9.71875ZM70.5485 5.72727H69.7104V13H70.5485V5.72727ZM74.2994 13.1136C75.7766 13.1136 76.771 11.9915 76.771 10.3011C76.771 8.59659 75.7766 7.47443 74.2994 7.47443C72.8221 7.47443 71.8278 8.59659 71.8278 10.3011C71.8278 11.9915 72.8221 13.1136 74.2994 13.1136ZM74.2994 12.3608C73.1772 12.3608 72.6658 11.3949 72.6658 10.3011C72.6658 9.20739 73.1772 8.22727 74.2994 8.22727C75.4215 8.22727 75.9329 9.20739 75.9329 10.3011C75.9329 11.3949 75.4215 12.3608 74.2994 12.3608ZM79.6554 13.1278C80.6071 13.1278 81.1042 12.6165 81.2747 12.2614H81.3173V13H82.1554V9.40625C82.1554 7.6733 80.8343 7.47443 80.1383 7.47443C79.3145 7.47443 78.377 7.75852 77.9508 8.75284L78.7463 9.03693C78.9309 8.6392 79.3677 8.21307 80.1667 8.21307C80.9373 8.21307 81.3173 8.62145 81.3173 9.32102V9.34943C81.3173 9.75426 80.9054 9.71875 79.911 9.84659C78.899 9.97798 77.7946 10.2017 77.7946 11.4517C77.7946 12.517 78.6184 13.1278 79.6554 13.1278ZM79.7832 12.375C79.1156 12.375 78.6326 12.0767 78.6326 11.4943C78.6326 10.8551 79.215 10.6562 79.8684 10.571C80.2235 10.5284 81.1752 10.429 81.3173 10.2585V11.0256C81.3173 11.7074 80.7775 12.375 79.7832 12.375ZM85.7447 13.1136C86.7958 13.1136 87.1509 12.4602 87.3356 12.1619H87.435V13H88.2447V5.72727H87.4066V8.41193H87.3356C87.1509 8.12784 86.8242 7.47443 85.7589 7.47443C84.381 7.47443 83.4293 8.56818 83.4293 10.2869C83.4293 12.0199 84.381 13.1136 85.7447 13.1136ZM85.8583 12.3608C84.8072 12.3608 84.2674 11.4375 84.2674 10.2727C84.2674 9.12216 84.793 8.22727 85.8583 8.22727C86.881 8.22727 87.4208 9.05114 87.4208 10.2727C87.4208 11.5085 86.8668 12.3608 85.8583 12.3608ZM94.9244 13.1136C96.4016 13.1136 97.396 11.9915 97.396 10.3011C97.396 8.59659 96.4016 7.47443 94.9244 7.47443C93.4471 7.47443 92.4528 8.59659 92.4528 10.3011C92.4528 11.9915 93.4471 13.1136 94.9244 13.1136ZM94.9244 12.3608C93.8022 12.3608 93.2908 11.3949 93.2908 10.3011C93.2908 9.20739 93.8022 8.22727 94.9244 8.22727C96.0465 8.22727 96.5579 9.20739 96.5579 10.3011C96.5579 11.3949 96.0465 12.3608 94.9244 12.3608ZM99.5133 9.71875C99.5133 8.76705 100.103 8.22727 100.905 8.22727C101.683 8.22727 102.155 8.73509 102.155 9.59091V13H102.993V9.53409C102.993 8.14205 102.251 7.47443 101.147 7.47443C100.323 7.47443 99.8116 7.84375 99.5559 8.39773H99.4849V7.54545H98.6752V13H99.5133V9.71875ZM109.71 7.54545H108.545V6.23864H107.707V7.54545H106.883V8.25568H107.707V11.6648C107.707 12.6165 108.474 13.071 109.184 13.071C109.496 13.071 109.695 13.0142 109.809 12.9716L109.638 12.2188C109.567 12.233 109.454 12.2614 109.269 12.2614C108.9 12.2614 108.545 12.1477 108.545 11.4375V8.25568H109.71V7.54545ZM111.925 9.71875C111.925 8.76705 112.533 8.22727 113.36 8.22727C114.148 8.22727 114.624 8.72443 114.624 9.59091V13H115.462V9.53409C115.462 8.13139 114.717 7.47443 113.602 7.47443C112.742 7.47443 112.252 7.8331 111.996 8.39773H111.925V5.72727H111.087V13H111.925V9.71875ZM119.282 13.1136C120.39 13.1136 121.2 12.5597 121.456 11.7358L120.646 11.5085C120.433 12.0767 119.939 12.3608 119.282 12.3608C118.299 12.3608 117.621 11.7251 117.581 10.5568H121.541V10.2017C121.541 8.17045 120.334 7.47443 119.197 7.47443C117.72 7.47443 116.74 8.6392 116.74 10.3153C116.74 11.9915 117.706 13.1136 119.282 13.1136ZM117.581 9.83239C117.638 8.98366 118.238 8.22727 119.197 8.22727C120.106 8.22727 120.689 8.90909 120.689 9.83239H117.581Z" fill="#203A59"/>
<defs>
<clipPath id="clip0_20_225">
<rect width="26" height="32" fill="white" transform="translate(0 4)"/>
</clipPath>
</defs>
</svg>
