<svg width="581" height="662" viewBox="0 0 581 662" fill="none" xmlns="http://www.w3.org/2000/svg">
<circle opacity="0.1" cx="302.5" cy="352.5" r="212.5" stroke="url(#paint0_linear_291_4)" stroke-width="5"/>
<ellipse opacity="0.1" cx="302.5" cy="352" rx="249.5" ry="249" stroke="url(#paint1_linear_291_4)" stroke-width="2"/>
<circle cx="434.5" cy="8.49963" r="8.5" fill="#EFD2EF"/>
<circle cx="61" cy="299" r="8" fill="#A836FF"/>
<ellipse cx="512" cy="649" rx="12" ry="13" fill="#AA8BC1"/>
<path d="M443.316 99.4377C387.097 70.477 317.112 94.3859 287 152.84L490.587 257.716C520.699 199.262 499.535 128.398 443.316 99.4377Z" fill="url(#paint2_linear_291_4)"/>
<path d="M186.194 554.019C288.914 613.325 422.694 573.917 485 466L113.018 251.236C50.7122 359.153 83.4741 494.714 186.194 554.019Z" fill="url(#paint3_linear_291_4)"/>
<path d="M580.138 304H478V374.715H580.138V304Z" fill="#383A4F"/>
<path d="M497.277 373.655C497.223 373.915 497.525 390.897 497.525 390.897L506.262 373.746L497.277 373.655Z" fill="#383A4F"/>
<path d="M577.536 307.095H480.602V371.627H577.536V307.095Z" fill="white"/>
<path opacity="0.4" d="M577.536 359.957H495.48C494.387 359.957 493.495 359.031 493.495 357.88V307.095H577.536V359.957Z" fill="#8B68B4"/>
<path opacity="0.83" d="M577.536 355.718H500.22C499.583 355.718 499.067 355.178 499.067 354.511V307.095H577.536V355.718Z" fill="white"/>
<g opacity="0.36">
<path opacity="0.36" d="M571.616 320.533C570.663 319.656 568.779 319.93 567.525 319.902C563.764 319.81 560.002 319.768 556.234 319.789C556.026 319.789 555.839 319.93 555.839 320.119C555.805 322.933 555.899 325.74 556.114 328.547C554.565 326.554 552.888 324.603 550.91 322.926C550.803 322.835 550.582 322.954 550.682 323.073C552.573 325.284 554.538 327.424 556.221 329.754C556.388 329.986 556.891 329.929 556.871 329.614C556.663 326.568 556.569 323.516 556.616 320.463C559.6 320.484 562.591 320.519 565.574 320.575C567.049 320.603 568.545 320.575 570.02 320.68C571.669 320.8 571.314 322.154 571.716 323.137C571.797 323.333 572.085 323.333 572.179 323.144C572.554 322.351 572.306 321.172 571.616 320.533Z" fill="#2A164A"/>
<path opacity="0.36" d="M571.025 326.308C570.563 326.764 569.986 327.803 569.101 327.571C568.592 327.438 568.457 326.814 568.297 326.442C568.115 326.028 567.934 325.614 567.753 325.2C567.666 324.996 567.311 324.891 567.163 325.122C566.909 325.522 566.634 325.915 566.312 326.28C566.084 326.54 565.507 327.298 565.038 327.129C564.662 326.996 564.522 326.372 564.475 326.014C564.729 325.501 564.857 324.947 564.763 324.365C564.723 324.133 564.274 324.07 564.16 324.287C563.885 324.814 563.764 325.361 563.811 325.929C563.717 326.098 563.61 326.259 563.489 326.421C563.087 326.94 562.497 327.586 561.799 327.817C560.874 328.126 560.311 327.347 560.09 326.687C559.969 326.322 559.674 324.982 560.291 324.919C560.485 324.898 560.425 324.652 560.251 324.645C560.137 324.638 560.029 324.631 559.915 324.624C559.855 324.617 559.774 324.652 559.748 324.701C559.312 325.48 559.272 326.386 559.647 327.193C559.976 327.901 560.666 328.554 561.632 328.435C562.597 328.315 563.342 327.557 563.891 326.919C563.932 326.87 563.965 326.814 564.005 326.764C564.139 327.115 564.341 327.452 564.662 327.628C565.708 328.182 566.781 326.849 567.385 325.943C567.572 326.393 567.76 326.849 567.975 327.291C568.183 327.726 568.498 328.07 569.068 328.154C570.281 328.336 571.119 327.368 571.307 326.456C571.32 326.329 571.146 326.189 571.025 326.308Z" fill="#2A164A"/>
<path opacity="0.36" d="M576.436 318.73C576.289 318.589 576.081 318.575 575.873 318.561C575.672 318.547 575.464 318.512 575.276 318.449C575.002 318.351 574.727 318.14 574.693 317.873C574.68 317.614 574.21 317.6 574.21 317.866C574.21 317.887 574.217 317.901 574.224 317.923H574.217C574.277 318.273 574.291 318.645 574.177 318.989C574.123 319.165 574.043 319.326 573.922 319.48C573.828 319.6 573.614 319.824 573.433 319.824C573.258 319.824 573.218 319.579 573.198 319.466C573.158 319.214 573.138 318.961 573.124 318.708C573.104 318.203 573.138 317.705 573.225 317.207C573.245 317.109 573.044 317.08 573.024 317.179C572.916 317.642 572.856 318.119 572.849 318.589C572.843 318.828 572.849 319.066 572.869 319.298C572.883 319.473 572.896 319.656 572.97 319.817C573.037 319.951 573.151 320.07 573.325 320.105C573.553 320.154 573.761 320.035 573.922 319.915C574.224 319.698 574.418 319.389 574.532 319.073C574.579 318.926 574.606 318.779 574.633 318.631C574.72 318.701 574.814 318.758 574.921 318.807C575.156 318.919 575.411 318.975 575.672 319.01C575.934 319.045 576.215 319.08 576.43 318.919C576.497 318.87 576.49 318.779 576.436 318.73Z" fill="#2A164A"/>
<path opacity="0.36" d="M549.603 341.249C549.402 341.494 548.906 341.501 548.637 341.347C548.275 341.143 548.114 340.736 547.987 340.399C547.9 340.168 547.558 340.119 547.397 340.322C547.095 340.694 546.8 341.073 546.499 341.445C546.364 341.613 545.701 342.568 545.607 341.985C545.459 341.101 545.66 340.098 545.868 339.235C545.949 338.912 545.365 338.757 545.285 339.087C545.09 339.873 544.722 340.61 544.172 341.256C543.749 341.747 542.811 342.771 541.979 342.589C541.483 342.484 541.403 341.957 541.336 341.592C541.248 341.15 541.228 340.701 541.248 340.252C541.302 339.347 541.59 338.463 542.073 337.663C542.201 337.445 541.832 337.249 541.698 337.466C541.108 338.399 540.772 339.438 540.726 340.498C540.692 341.27 540.672 342.673 541.678 343.024C542.683 343.375 543.736 342.477 544.319 341.887C544.561 341.641 544.769 341.382 544.963 341.115V341.122C544.943 341.564 544.795 342.336 545.285 342.638C545.734 342.919 546.271 342.659 546.566 342.336C546.934 341.929 547.263 341.494 547.598 341.059C547.813 341.452 548.108 341.81 548.604 341.943C549.174 342.105 549.818 341.915 549.978 341.389C550.045 341.192 549.737 341.08 549.603 341.249Z" fill="#2A164A"/>
<path opacity="0.36" d="M555.564 342.182C555.47 342.027 555.269 341.894 555.128 341.775C554.96 341.634 554.793 341.487 554.625 341.347C554.565 341.291 554.498 341.242 554.437 341.185C554.484 341.066 554.538 340.954 554.578 340.834C554.833 340.14 555.021 339.431 555.014 338.701C555.014 338.526 554.712 338.526 554.699 338.694C554.625 339.403 554.37 340.084 554.048 340.743C554.035 340.771 554.022 340.799 554.008 340.82C553.887 340.715 553.767 340.61 553.639 340.512L551.628 338.884C551.433 338.722 551.145 338.961 551.326 339.136C551.956 339.733 552.587 340.322 553.21 340.919C553.378 341.073 553.546 341.227 553.713 341.375C553.659 341.473 553.606 341.578 553.552 341.684C553.371 342.02 553.157 342.378 553.029 342.729C552.922 343.031 553.445 343.241 553.619 342.954C553.827 342.624 553.981 342.252 554.136 341.901C554.149 341.866 554.162 341.831 554.176 341.796L554.618 342.189C554.779 342.336 554.94 342.533 555.168 342.596C555.463 342.687 555.684 342.399 555.564 342.182Z" fill="#2A164A"/>
<path opacity="0.36" d="M572.675 339.15C572.588 339.024 572.4 339.087 572.38 339.213C572.293 339.782 571.904 340.477 571.207 340.624C570.382 340.799 569.658 340.133 569.684 339.452C569.698 339.08 569.021 338.975 568.913 339.347C568.739 339.964 568.464 340.982 567.559 341.038C566.258 341.115 566.07 339.691 566.158 338.891C566.198 338.568 565.588 338.491 565.501 338.806C565.266 339.691 564.622 340.652 563.59 340.996C562.061 341.501 561.866 339.831 561.933 338.94C561.954 338.645 561.39 338.554 561.317 338.855C561.31 338.877 561.31 338.905 561.303 338.926C561.303 338.933 561.303 338.94 561.303 338.947C561.27 339.129 561.256 339.333 561.256 339.543C561.169 339.992 560.961 340.462 560.579 340.694C560.425 340.785 560.137 340.877 560.016 340.785C559.909 340.708 559.949 340.385 559.955 340.245C559.976 339.845 560.123 339.473 560.358 339.129C560.452 338.996 560.224 338.884 560.123 339.003C559.754 339.445 558.896 341.291 560.11 341.382C560.633 341.424 561.102 340.905 561.364 340.575C561.384 340.547 561.404 340.512 561.424 340.484C561.672 341.185 562.208 341.754 563.187 341.691C564.227 341.613 565.024 340.975 565.547 340.21C565.755 340.954 566.298 341.592 567.324 341.691C568.303 341.782 568.9 341.213 569.269 340.533C569.698 341.087 570.442 341.452 571.253 341.333C572.387 341.171 573.312 340.062 572.675 339.15Z" fill="#2A164A"/>
<path opacity="0.36" d="M536.729 310.147C536.689 310 536.475 309.923 536.32 310C531.439 312.491 526.524 314.975 521.75 317.628C521.583 317.487 521.402 317.361 521.2 317.263C521.127 317.228 521.013 317.242 520.973 317.312C520.899 317.438 520.872 317.551 520.966 317.677C521.019 317.747 521.14 317.705 521.127 317.621V317.614C521.207 317.691 521.288 317.761 521.368 317.838C520.926 318.084 520.476 318.323 520.041 318.575C519.92 318.645 520.02 318.807 520.148 318.744C520.624 318.505 521.093 318.259 521.569 318.021C521.757 318.196 521.938 318.372 522.099 318.575C522.414 318.975 522.669 319.41 522.843 319.866C522.951 320.154 523.064 320.484 523.118 320.814C521.1 320.68 519.088 320.491 517.07 320.266C516.782 320.238 516.701 320.659 516.99 320.708C519.015 321.031 521.066 321.242 523.138 321.368C523.105 321.705 522.984 322.014 522.682 322.252C522.622 322.301 522.642 322.407 522.729 322.421C523.292 322.533 523.547 322.014 523.614 321.621C523.628 321.551 523.628 321.473 523.628 321.396C528.402 321.656 533.236 321.445 537.916 320.891C538.044 320.877 538.144 320.751 538.144 320.645C538.077 317.109 537.628 313.593 536.729 310.147ZM527.309 320.975C526.075 320.968 524.848 320.905 523.621 320.835C523.581 320.554 523.5 320.273 523.413 320.007C523.225 319.459 522.944 318.94 522.575 318.47C522.401 318.245 522.2 318.014 521.978 317.803C526.739 315.396 531.452 312.926 536.253 310.582C536.984 313.824 537.44 317.109 537.547 320.407C534.155 320.814 530.735 321.003 527.309 320.975Z" fill="#2A164A"/>
<path opacity="0.36" d="M543.87 313.417C543.548 313.438 543.24 313.586 542.952 313.691C542.65 313.803 542.355 313.923 542.053 314.042C541.443 314.288 540.786 314.505 540.223 314.814C540.135 314.863 540.182 314.996 540.296 314.968C540.933 314.814 541.543 314.54 542.154 314.309C542.455 314.196 542.764 314.084 543.059 313.965C543.354 313.845 543.703 313.74 543.937 313.544C543.984 313.509 543.951 313.417 543.87 313.417Z" fill="#2A164A"/>
<path opacity="0.36" d="M546.237 312.344C546.029 312.224 545.754 312.281 545.526 312.302C545.225 312.337 544.916 312.372 544.614 312.4C544.313 312.435 544.004 312.47 543.703 312.498C543.548 312.512 543.401 312.533 543.247 312.561C543.092 312.589 542.905 312.596 542.771 312.674C542.67 312.737 542.683 312.849 542.797 312.891C542.911 312.933 543.039 312.919 543.159 312.912C543.293 312.912 543.421 312.912 543.555 312.898C543.817 312.877 544.078 312.856 544.339 312.835L545.124 312.772C545.365 312.751 545.62 312.709 545.862 312.716H545.868C545.835 312.8 545.788 312.877 545.748 312.961C545.654 313.137 545.546 313.305 545.426 313.474C545.312 313.635 545.191 313.782 545.057 313.93C544.99 314.007 544.909 314.077 544.849 314.154C544.775 314.238 544.742 314.33 544.688 314.428C544.614 314.568 544.829 314.673 544.963 314.617C545.231 314.505 545.385 314.344 545.567 314.14C545.734 313.951 545.882 313.754 546.016 313.551C546.15 313.347 546.264 313.144 546.364 312.926C546.465 312.73 546.478 312.484 546.237 312.344Z" fill="#2A164A"/>
<path opacity="0.36" d="M559.66 311.319C559.426 311.277 559.191 311.256 558.956 311.207C558.702 311.151 558.494 311.038 558.252 310.968C557.971 310.884 557.703 310.919 557.461 311.074C557.2 311.242 557.052 311.502 556.838 311.712C556.308 312.224 555.819 311.642 555.577 311.2C555.456 310.975 555.081 311.095 555.068 311.312C555.034 311.698 554.511 311.824 554.176 311.656C553.854 311.502 553.72 311.2 553.713 310.891C553.706 310.667 553.371 310.575 553.224 310.772C552.888 311.214 552.5 311.635 552.037 311.979C551.682 312.245 551.299 312.042 551.159 311.705C551.038 311.417 551.058 311.109 551.185 310.828C551.272 310.554 550.817 310.449 550.703 310.702C550.555 311.179 550.267 311.607 549.818 311.923C549.496 312.147 548.899 312.316 548.644 311.937C548.47 311.677 548.443 311.214 548.477 310.912C548.483 310.877 548.416 310.87 548.409 310.905C548.249 311.319 548.014 311.677 548.262 312.119C548.436 312.428 548.805 312.638 549.214 312.603C549.784 312.561 550.26 312.217 550.615 311.803C550.723 312.203 550.998 312.547 551.507 312.631C552.231 312.758 552.895 312.042 553.344 311.452C553.512 311.831 553.82 312.147 554.33 312.21C554.759 312.267 555.155 312.091 555.389 311.81C555.825 312.323 556.482 312.709 557.153 312.147C557.488 311.867 557.662 311.284 558.212 311.481C558.728 311.67 559.171 311.824 559.701 311.558C559.795 311.509 559.795 311.347 559.66 311.319Z" fill="#2A164A"/>
<path opacity="0.36" d="M560.613 314.259C560.183 314.147 559.707 314.231 559.251 314.14C558.782 314.049 558.326 313.916 557.85 313.873C557.401 313.831 556.965 313.902 556.576 314.098C556.335 314.217 555.376 314.87 555.242 314.323C555.195 314.133 554.913 314.084 554.759 314.203C554.317 314.54 553.78 314.919 553.15 314.87C552.593 314.828 552.077 314.252 552.634 313.88C552.848 313.74 552.573 313.41 552.352 313.551C551.695 313.965 551.802 314.821 552.493 315.165C553.324 315.579 554.189 315.214 554.873 314.758C555.081 314.947 555.403 315.045 555.725 315.017C556.368 314.968 556.784 314.442 557.428 314.386C558.045 314.337 558.648 314.568 559.245 314.673C559.728 314.758 560.378 314.856 560.706 314.463C560.774 314.393 560.713 314.28 560.613 314.259Z" fill="#2A164A"/>
</g>
<path d="M546.331 371.62H499.335C500.013 367.929 502.534 355.824 506.356 353.115C509.54 350.869 513.362 348.926 518.532 348.203C518.881 348.147 519.222 348.112 519.578 348.077C520.054 348.02 520.53 347.971 521.033 347.95C521.033 347.95 521.033 347.95 521.046 347.95C522.501 347.873 524.057 347.873 525.72 347.992H525.787C526.122 348.013 526.457 348.048 526.792 348.091C527.108 348.112 527.416 348.161 527.731 348.203C536.052 349.41 543.267 354.589 544.668 361.887C544.883 363.003 545.07 364.013 545.231 364.918V364.932C545.888 368.518 546.19 370.595 546.331 371.62Z" fill="#FF90BD"/>
<path d="M530.728 371.62H518.921C518.606 368.329 517.801 357.845 517.701 356.013C517.493 352.175 517.647 350.147 518.425 349.122C518.713 348.736 519.095 348.491 519.578 348.343C520.094 348.196 520.731 348.154 521.509 348.175C522.126 348.189 522.823 348.245 523.628 348.301C524.037 348.336 524.419 348.371 524.761 348.413C525.579 348.505 526.249 348.617 526.793 348.778C527.396 348.947 527.859 349.164 528.221 349.431C529.173 350.133 529.387 351.241 529.649 353.003C530.051 355.887 530.688 368.153 530.728 371.62Z" fill="#8B68B4"/>
<path d="M527.383 341.263H518.874V349.206H527.383V341.263Z" fill="#E79F8B"/>
<path d="M547.27 342.666C547.109 339.768 547.538 336.771 548.926 334.259C549.241 333.684 549.965 333.08 550.421 333.543C550.622 333.747 550.649 334.07 550.656 334.357C550.716 336.596 550.515 338.835 550.059 341.024C550.394 340.28 551.299 339.894 552.05 340.147C552.801 340.399 553.311 341.241 553.257 342.063C553.452 341.227 554.672 341.129 555.262 341.726C555.852 342.322 555.946 343.263 555.953 344.126C556.248 343.705 556.932 343.824 557.253 344.231C557.569 344.638 557.609 345.199 557.609 345.726C557.595 347.333 557.28 348.968 556.469 350.322C555.658 351.683 554.296 352.736 552.768 352.897C547.933 353.417 547.457 346.119 547.27 342.666Z" fill="#E79F8B"/>
<path d="M549.301 351.192C549.301 351.192 545.278 348.813 546.68 346.161C548.081 343.508 552.184 344.884 551.313 346.434C550.441 347.992 548.517 347.712 548.517 347.712L549.301 351.192Z" fill="#E79F8B"/>
<path d="M518.592 347.038C519.041 346.989 521.247 348.75 523.614 348.624C525.981 348.498 527.161 347.354 527.517 346.975C527.865 346.596 529.81 350.652 529.515 351.094C529.22 351.536 528.355 353.269 527.49 352.954C526.625 352.638 524.184 349.585 524.184 349.585C524.184 349.585 521.972 353.276 521.147 353.276C520.322 353.276 517.654 351.978 517.513 349.95C517.372 347.922 518.016 347.101 518.592 347.038Z" fill="white"/>
<path d="M557.086 351.192L556.911 371.62H544.085L545.231 364.932V364.925L547.638 350.911L548.919 350.947H548.932L549.053 350.961H549.248L555.852 351.164L557.086 351.192Z" fill="#FF90BD"/>
<path d="M532.86 319.965C532.626 319.789 532.331 319.81 532.036 320.105C531.788 320.358 531.526 320.821 531.432 321.165C531.097 322.358 531.224 323.677 531.412 324.821C531.587 325.873 531.868 326.919 532.337 327.824C532.358 327.859 532.378 327.901 532.398 327.936C532.626 328.357 532.894 328.743 533.216 329.087C533.283 329.108 533.343 329.136 533.417 329.136C533.638 329.129 533.853 328.975 534.02 328.807C535.167 327.656 534.912 325.824 534.698 324.491C534.443 322.926 533.893 321.459 533.075 320.203C533.015 320.105 532.941 320.021 532.86 319.965Z" fill="#2A164A"/>
<path d="M534.376 330.266C534.376 337.894 533.223 344.434 525.586 344.947C515.736 345.606 511.72 337.887 511.72 330.266C511.72 322.645 516.789 316.463 523.051 316.463C529.307 316.456 534.376 322.638 534.376 330.266Z" fill="#E79F8B"/>
<path d="M522.334 337.192C522.622 336.68 524.151 336.806 525.948 336.596C527.979 336.357 529.394 335.95 529.749 336.154C530.42 336.54 529.039 339.642 526.417 339.901C524.54 340.091 521.811 338.126 522.334 337.192Z" fill="white"/>
<path d="M520.429 320.449C522.515 321.761 524.587 323.13 526.833 324.091C529.394 325.186 532.197 325.551 534.584 323.768C535.134 323.354 535.817 322.491 534.979 322.035C534.43 321.733 533.699 321.81 533.102 321.754C533.779 321.817 534.503 321.663 535.033 321.221C535.563 320.779 535.878 320.021 535.697 319.347C535.563 318.856 535.194 318.463 534.805 318.147C533.611 317.186 532.11 316.709 530.621 316.4C530.36 316.344 530.098 316.302 529.837 316.252C530.044 315.951 530.239 315.614 530.179 315.256C530.111 314.877 529.783 314.617 529.461 314.407C526.913 312.779 523.695 312.681 520.657 312.674C518.518 312.674 516.279 312.709 514.368 313.712C513.476 314.175 512.564 314.954 512.464 315.951C510.392 316.119 508.608 317.789 507.904 319.761C507.2 321.733 507.442 323.937 508.153 325.894C508.863 327.852 509.735 330.063 510.419 330.477C511.103 330.891 511.136 330.4 511.961 330.814C512.786 331.228 512.839 332.456 513.47 332.505C514.1 332.554 514.08 330.8 514.247 329.986C514.589 328.336 514.576 326.631 514.985 324.996C515.421 323.228 516.366 321.565 517.674 320.21C517.882 319.993 518.116 319.775 518.384 319.649C518.451 319.614 519.142 319.789 519.256 319.824C519.645 319.937 520.014 320.189 520.356 320.407C520.382 320.414 520.409 320.435 520.429 320.449Z" fill="#2A164A"/>
<path d="M511.807 330.743C510.989 329.186 509.762 328.133 508.562 329.214C508.173 329.564 507.971 330.231 507.951 330.898C507.938 331.564 508.085 332.238 508.293 332.863C508.816 334.435 509.742 335.824 510.902 336.406C511.337 336.624 511.847 336.715 512.209 336.357C512.705 335.873 512.799 334.877 512.759 334.056C512.712 333.038 512.35 331.782 511.807 330.743Z" fill="#E79F8B"/>
<path d="M508.85 330.849C508.944 330.68 509.091 330.568 509.239 330.533C509.594 330.442 509.97 330.694 510.245 331.038C510.533 331.396 510.774 331.852 510.989 332.301C511.21 332.764 511.378 333.284 511.472 333.824C511.492 333.929 511.364 333.971 511.344 333.866C511.143 332.996 510.721 332.189 510.265 331.536C510.198 331.438 510.117 331.34 510.037 331.256C509.936 331.677 509.929 332.14 510.01 332.589C510.104 333.129 510.298 333.585 510.519 334.049C510.54 334.098 510.506 334.154 510.472 334.112C509.849 333.382 509.601 332.105 509.903 331.115C509.762 330.996 509.614 330.905 509.453 330.891C509.199 330.87 508.904 331.087 508.83 331.445C508.816 331.508 508.736 331.487 508.729 331.417C508.729 331.199 508.756 331.01 508.85 330.849Z" fill="#391B5C"/>
<path d="M535.543 327.017C535.281 326.4 534.698 326.049 534.114 326.063C533.477 326.084 532.834 326.126 532.183 326.154C531.07 326.203 529.924 326.217 528.777 326.336C527.952 326.421 527.295 326.814 527.242 327.803C527.242 327.817 527.242 327.831 527.242 327.838L527.235 327.831C526.886 327.642 526.498 327.614 526.122 327.712C525.747 327.817 525.418 328.035 525.123 328.315L525.116 328.322C525.096 328.133 525.083 327.936 525.056 327.747C524.915 326.75 524.191 326.386 523.313 326.343C522.052 326.287 520.765 326.343 519.464 326.35C518.686 326.358 517.902 326.35 517.11 326.372C516.366 326.386 515.662 326.828 515.387 327.543C515.233 327.95 515.206 328.4 515.24 328.842C515.226 328.842 515.206 328.849 515.193 328.849C514.992 328.877 514.784 328.912 514.583 328.94C514.214 328.996 513.852 329.052 513.483 329.101C513.121 329.157 512.759 329.228 512.39 329.298C512.202 329.333 511.995 329.354 511.827 329.438C511.713 329.494 511.572 329.642 511.659 329.789C511.834 330.07 512.343 329.943 512.618 329.922C512.973 329.894 513.329 329.866 513.684 329.817C514.04 329.768 514.395 329.726 514.75 329.677C514.931 329.649 515.112 329.628 515.287 329.6C515.307 329.6 515.32 329.593 515.34 329.593C515.541 330.912 515.79 332.273 516.219 333.508C516.393 334.021 516.621 334.519 517.137 334.729C517.62 334.919 518.19 334.863 518.693 334.856C519.35 334.842 520.007 334.806 520.657 334.736C521.831 334.617 523.044 334.47 524.144 334.112C525.197 333.775 525.311 332.792 525.291 331.768C525.27 330.884 525.257 329.971 525.197 329.073C525.505 328.828 525.834 328.61 526.189 328.498C526.316 328.456 526.43 328.435 526.565 328.442C526.632 328.442 526.632 328.442 526.699 328.463C526.725 328.47 526.746 328.477 526.772 328.484C526.786 328.491 526.799 328.491 526.813 328.498C526.786 328.484 526.786 328.484 526.813 328.498C526.866 328.526 526.913 328.554 526.96 328.589C526.967 328.596 526.974 328.596 526.974 328.603C527 328.624 527.02 328.652 527.041 328.68C527.047 328.687 527.088 328.75 527.067 328.715C527.047 328.68 527.094 328.772 527.101 328.779C527.114 328.8 527.128 328.828 527.108 328.786C527.141 328.856 527.148 328.898 527.188 328.954C527.202 328.975 527.222 328.982 527.242 328.996C527.262 329.915 527.329 330.842 527.389 331.747C527.456 332.75 527.651 333.691 528.683 333.866C529.729 334.042 530.829 334.007 531.848 333.943C532.405 333.908 532.954 333.852 533.498 333.775C533.907 333.712 534.363 333.691 534.731 333.452C535.12 333.2 535.261 332.729 535.355 332.266C535.61 331.031 535.697 329.698 535.75 328.435C535.771 327.972 535.737 327.459 535.543 327.017Z" fill="black"/>
<path d="M524.54 332.512C524.486 333.045 524.245 333.277 523.762 333.396C521.958 333.845 519.92 334.098 517.982 333.993C517.312 333.957 517.144 333.628 516.929 333.024C516.735 332.491 516.581 331.943 516.46 331.389C516.266 330.505 515.991 329.6 516.038 328.68C516.098 327.459 516.601 327.277 517.7 327.27C518.23 327.27 518.746 327.263 519.269 327.263C520.295 327.256 521.314 327.263 522.314 327.242C522.723 327.235 523.152 327.193 523.554 327.242C524.03 327.298 524.224 327.473 524.285 327.986C524.412 329.017 524.466 330.063 524.513 331.094C524.533 331.564 524.587 332.049 524.54 332.512Z" fill="white"/>
<path d="M534.999 330.456C534.946 330.954 534.865 331.452 534.758 331.943C534.631 332.505 534.523 332.814 533.994 332.926C532.411 333.27 530.628 333.319 528.958 333.136C528.502 333.087 528.247 332.898 528.154 332.386C528.073 331.943 528.073 331.466 528.053 331.017C528.006 330.007 527.966 328.982 527.999 327.972C528.013 327.473 528.18 327.291 528.623 327.2C528.998 327.129 529.387 327.137 529.763 327.122C530.655 327.08 531.54 327.017 532.411 326.961C532.84 326.933 533.276 326.905 533.699 326.884C534.577 326.828 534.979 326.968 535.12 328.035C535.227 328.849 535.08 329.663 534.999 330.456Z" fill="white"/>
<path d="M490.559 365.859C490.559 367.599 489.211 369.009 487.548 369.009C485.885 369.009 484.537 367.599 484.537 365.859C484.537 364.118 485.885 362.708 487.548 362.708C489.211 362.708 490.559 364.118 490.559 365.859Z" fill="#C87AFF"/>
<path d="M43.1019 438L48.6692 446.076C37.6617 453.048 34.8983 467.704 42.518 478.746C48.0043 486.695 57.3931 490.638 66.3366 489.621C69.817 489.227 73.2221 488.077 76.3093 486.129L81.8766 494.194C77.5465 496.934 72.7596 498.541 67.8802 499.096C55.3349 500.524 42.1653 494.991 34.4705 483.839C23.7694 468.346 27.6486 447.782 43.1019 438Z" fill="url(#paint4_linear_291_4)"/>
<path d="M45.2409 452.106L48.6634 446.076C45.4259 448.129 42.8995 450.846 41.142 453.939L37.7195 459.969C39.477 456.876 42.0034 454.159 45.2409 452.106Z" fill="url(#paint5_linear_291_4)"/>
<path d="M67.8745 499.096C55.3292 500.524 42.1595 494.991 34.4647 483.839C26.9144 472.907 26.6253 459.448 32.5395 449.036L29.117 455.066C23.2086 465.478 23.4977 478.931 31.0364 489.869C38.7312 501.021 51.9067 506.554 64.4462 505.126C69.3256 504.571 74.1124 502.964 78.4426 500.223L81.8651 494.194C77.5407 496.934 72.7538 498.541 67.8745 499.096Z" fill="url(#paint6_linear_291_4)"/>
<path d="M64.3724 557.449H60.6V561.221H64.3724V557.449Z" fill="url(#paint7_linear_291_4)"/>
<path d="M83.0293 557.449H79.2569V561.221H83.0293V557.449Z" fill="url(#paint8_linear_291_4)"/>
<path d="M101.686 557.449H97.9138V561.221H101.686V557.449Z" fill="url(#paint9_linear_291_4)"/>
<path d="M120.343 557.449H116.571V561.221H120.343V557.449Z" fill="url(#paint10_linear_291_4)"/>
<path d="M139 557.449H135.228V561.221H139V557.449Z" fill="url(#paint11_linear_291_4)"/>
<path d="M64.3724 571.284H60.6V575.056H64.3724V571.284Z" fill="url(#paint12_linear_291_4)"/>
<path d="M83.0293 571.284H79.2569V575.056H83.0293V571.284Z" fill="url(#paint13_linear_291_4)"/>
<path d="M101.686 571.284H97.9138V575.056H101.686V571.284Z" fill="url(#paint14_linear_291_4)"/>
<path d="M120.343 571.284H116.571V575.056H120.343V571.284Z" fill="url(#paint15_linear_291_4)"/>
<path d="M139 571.284H135.228V575.056H139V571.284Z" fill="url(#paint16_linear_291_4)"/>
<path d="M64.3724 585.119H60.6V588.891H64.3724V585.119Z" fill="url(#paint17_linear_291_4)"/>
<path d="M83.0293 585.119H79.2569V588.891H83.0293V585.119Z" fill="url(#paint18_linear_291_4)"/>
<path d="M101.686 585.119H97.9138V588.891H101.686V585.119Z" fill="url(#paint19_linear_291_4)"/>
<path d="M120.343 585.119H116.571V588.891H120.343V585.119Z" fill="url(#paint20_linear_291_4)"/>
<path d="M139 585.119H135.228V588.891H139V585.119Z" fill="url(#paint21_linear_291_4)"/>
<path d="M92.5993 54.2435L83.2436 63.5993C78.853 67.9899 86.4579 82.7211 100.238 96.4948C114.012 110.268 128.743 117.88 133.134 113.49L142.49 104.134L92.5993 54.2435Z" fill="url(#paint22_linear_291_4)"/>
<path d="M142.49 104.134C138.099 108.525 123.368 100.92 109.594 87.1391C95.8205 73.3654 88.2087 58.6342 92.5993 54.2436C96.9899 49.853 111.721 57.4579 125.495 71.2384C139.275 85.0122 146.88 99.7433 142.49 104.134Z" fill="url(#paint23_linear_291_4)"/>
<defs>
<linearGradient id="paint0_linear_291_4" x1="302.5" y1="565" x2="302.5" y2="112.987" gradientUnits="userSpaceOnUse">
<stop stop-color="#2F61E6"/>
<stop offset="1" stop-color="#43ADFF"/>
</linearGradient>
<linearGradient id="paint1_linear_291_4" x1="302.5" y1="601" x2="302.5" y2="71.3471" gradientUnits="userSpaceOnUse">
<stop stop-color="#A734FF"/>
<stop offset="1" stop-color="#D092FF"/>
</linearGradient>
<linearGradient id="paint2_linear_291_4" x1="363.059" y1="255.234" x2="450.949" y2="84.6201" gradientUnits="userSpaceOnUse">
<stop stop-color="#6E96FF"/>
<stop offset="1" stop-color="#A2D6FF"/>
</linearGradient>
<linearGradient id="paint3_linear_291_4" x1="299.009" y1="358.618" x2="179.024" y2="566.439" gradientUnits="userSpaceOnUse">
<stop stop-color="#A734FF"/>
<stop offset="1" stop-color="#D092FF"/>
</linearGradient>
<linearGradient id="paint4_linear_291_4" x1="69.4846" y1="441.318" x2="11.3512" y2="583.138" gradientUnits="userSpaceOnUse">
<stop offset="0.1456" stop-color="#E0BDF7"/>
<stop offset="1" stop-color="#8757B0"/>
</linearGradient>
<linearGradient id="paint5_linear_291_4" x1="40.2276" y1="511.719" x2="43.506" y2="446.805" gradientUnits="userSpaceOnUse">
<stop offset="0.0132" stop-color="#E0BDF7"/>
<stop offset="1" stop-color="#8B68B4"/>
</linearGradient>
<linearGradient id="paint6_linear_291_4" x1="51.904" y1="512.308" x2="55.1825" y2="447.395" gradientUnits="userSpaceOnUse">
<stop offset="0.0132" stop-color="#E0BDF7"/>
<stop offset="1" stop-color="#8B68B4"/>
</linearGradient>
<linearGradient id="paint7_linear_291_4" x1="140.598" y1="604.841" x2="36.8159" y2="544.377" gradientUnits="userSpaceOnUse">
<stop stop-color="#E0BDF7"/>
<stop offset="1" stop-color="#8757B0"/>
</linearGradient>
<linearGradient id="paint8_linear_291_4" x1="145.327" y1="596.727" x2="41.5436" y2="536.261" gradientUnits="userSpaceOnUse">
<stop stop-color="#E0BDF7"/>
<stop offset="1" stop-color="#8757B0"/>
</linearGradient>
<linearGradient id="paint9_linear_291_4" x1="150.054" y1="588.611" x2="46.2719" y2="528.146" gradientUnits="userSpaceOnUse">
<stop stop-color="#E0BDF7"/>
<stop offset="1" stop-color="#8757B0"/>
</linearGradient>
<linearGradient id="paint10_linear_291_4" x1="154.782" y1="580.495" x2="51.0003" y2="520.032" gradientUnits="userSpaceOnUse">
<stop stop-color="#E0BDF7"/>
<stop offset="1" stop-color="#8757B0"/>
</linearGradient>
<linearGradient id="paint11_linear_291_4" x1="159.511" y1="572.38" x2="55.7271" y2="511.915" gradientUnits="userSpaceOnUse">
<stop stop-color="#E0BDF7"/>
<stop offset="1" stop-color="#8757B0"/>
</linearGradient>
<linearGradient id="paint12_linear_291_4" x1="134.58" y1="615.171" x2="30.7984" y2="554.707" gradientUnits="userSpaceOnUse">
<stop stop-color="#E0BDF7"/>
<stop offset="1" stop-color="#8757B0"/>
</linearGradient>
<linearGradient id="paint13_linear_291_4" x1="139.309" y1="607.056" x2="35.5259" y2="546.591" gradientUnits="userSpaceOnUse">
<stop stop-color="#E0BDF7"/>
<stop offset="1" stop-color="#8757B0"/>
</linearGradient>
<linearGradient id="paint14_linear_291_4" x1="144.036" y1="598.94" x2="40.2545" y2="538.476" gradientUnits="userSpaceOnUse">
<stop stop-color="#E0BDF7"/>
<stop offset="1" stop-color="#8757B0"/>
</linearGradient>
<linearGradient id="paint15_linear_291_4" x1="148.764" y1="590.825" x2="44.9824" y2="530.361" gradientUnits="userSpaceOnUse">
<stop stop-color="#E0BDF7"/>
<stop offset="1" stop-color="#8757B0"/>
</linearGradient>
<linearGradient id="paint16_linear_291_4" x1="153.492" y1="582.71" x2="49.7097" y2="522.245" gradientUnits="userSpaceOnUse">
<stop stop-color="#E0BDF7"/>
<stop offset="1" stop-color="#8757B0"/>
</linearGradient>
<linearGradient id="paint17_linear_291_4" x1="128.562" y1="625.5" x2="24.7798" y2="565.036" gradientUnits="userSpaceOnUse">
<stop stop-color="#E0BDF7"/>
<stop offset="1" stop-color="#8757B0"/>
</linearGradient>
<linearGradient id="paint18_linear_291_4" x1="133.291" y1="617.386" x2="29.5072" y2="556.92" gradientUnits="userSpaceOnUse">
<stop stop-color="#E0BDF7"/>
<stop offset="1" stop-color="#8757B0"/>
</linearGradient>
<linearGradient id="paint19_linear_291_4" x1="138.018" y1="609.27" x2="34.2357" y2="548.805" gradientUnits="userSpaceOnUse">
<stop stop-color="#E0BDF7"/>
<stop offset="1" stop-color="#8757B0"/>
</linearGradient>
<linearGradient id="paint20_linear_291_4" x1="142.746" y1="601.154" x2="38.9639" y2="540.69" gradientUnits="userSpaceOnUse">
<stop stop-color="#E0BDF7"/>
<stop offset="1" stop-color="#8757B0"/>
</linearGradient>
<linearGradient id="paint21_linear_291_4" x1="147.474" y1="593.039" x2="43.6906" y2="532.574" gradientUnits="userSpaceOnUse">
<stop stop-color="#E0BDF7"/>
<stop offset="1" stop-color="#8757B0"/>
</linearGradient>
<linearGradient id="paint22_linear_291_4" x1="83.7101" y1="62.926" x2="134.392" y2="112.579" gradientUnits="userSpaceOnUse">
<stop stop-color="#BF97DE"/>
<stop offset="0.4147" stop-color="#E0BDF7"/>
<stop offset="1" stop-color="#8757B0"/>
</linearGradient>
<linearGradient id="paint23_linear_291_4" x1="125.833" y1="81.6432" x2="-0.922809" y2="44.1453" gradientUnits="userSpaceOnUse">
<stop stop-color="#E0BDF7"/>
<stop offset="1" stop-color="#8757B0"/>
</linearGradient>
</defs>
</svg>
