<svg width="142" height="40" viewBox="0 0 142 40" fill="none" xmlns="http://www.w3.org/2000/svg">
<path d="M46.8182 26.1406H49.6307C49.2727 23.5518 46.9908 21.7301 44.0312 21.7301C40.5732 21.7301 37.9077 24.223 37.9077 28.4673C37.9077 32.6094 40.4006 35.179 44.0888 35.179C47.3935 35.179 49.7521 33.0888 49.7521 29.6435V27.9943H44.2741V30.0781H47.0866C47.0483 31.7017 45.9425 32.7308 44.1016 32.7308C42.0241 32.7308 40.7138 31.1776 40.7138 28.4418C40.7138 25.7188 42.0753 24.1783 44.076 24.1783C45.5014 24.1783 46.4666 24.9134 46.8182 26.1406ZM56.2161 35.1918C59.1948 35.1918 61.0485 33.1527 61.0485 30.1293C61.0485 27.0866 59.1948 25.054 56.2161 25.054C53.2374 25.054 51.3837 27.0866 51.3837 30.1293C51.3837 33.1527 53.2374 35.1918 56.2161 35.1918ZM56.2289 33.0824C54.8546 33.0824 54.1515 31.8232 54.1515 30.1101C54.1515 28.397 54.8546 27.1314 56.2289 27.1314C57.5776 27.1314 58.2807 28.397 58.2807 30.1101C58.2807 31.8232 57.5776 33.0824 56.2289 33.0824ZM67.2551 35.1918C70.2338 35.1918 72.0875 33.1527 72.0875 30.1293C72.0875 27.0866 70.2338 25.054 67.2551 25.054C64.2765 25.054 62.4228 27.0866 62.4228 30.1293C62.4228 33.1527 64.2765 35.1918 67.2551 35.1918ZM67.2679 33.0824C65.8936 33.0824 65.1905 31.8232 65.1905 30.1101C65.1905 28.397 65.8936 27.1314 67.2679 27.1314C68.6167 27.1314 69.3198 28.397 69.3198 30.1101C69.3198 31.8232 68.6167 33.0824 67.2679 33.0824ZM78.2814 38.8864C81.0875 38.8864 83.0819 37.608 83.0819 35.0959V25.1818H80.378V26.831H80.2757C79.9114 26.032 79.1124 25.054 77.4696 25.054C75.3155 25.054 73.4938 26.7287 73.4938 30.0717C73.4938 33.3381 75.2644 34.8594 77.476 34.8594C79.0421 34.8594 79.9178 34.0732 80.2757 33.2614H80.3908V35.0575C80.3908 36.4062 79.5279 36.9304 78.3453 36.9304C77.1436 36.9304 76.5364 36.4062 76.3127 35.8118L73.7942 36.1506C74.1202 37.6974 75.6351 38.8864 78.2814 38.8864ZM78.339 32.8139C77.003 32.8139 76.2743 31.7528 76.2743 30.0589C76.2743 28.3906 76.9902 27.2209 78.339 27.2209C79.6621 27.2209 80.4036 28.3395 80.4036 30.0589C80.4036 31.7912 79.6493 32.8139 78.339 32.8139ZM87.9718 21.9091H85.2488V35H87.9718V21.9091ZM94.6275 35.1918C97.0565 35.1918 98.6928 34.0092 99.0764 32.1875L96.5579 32.0213C96.283 32.7692 95.5799 33.1591 94.6722 33.1591C93.3107 33.1591 92.4478 32.2578 92.4478 30.794V30.7876H99.1339V30.0398C99.1339 26.7031 97.114 25.054 94.5188 25.054C91.6296 25.054 89.7567 27.1058 89.7567 30.1357C89.7567 33.2486 91.604 35.1918 94.6275 35.1918ZM92.4478 29.1001C92.5053 27.9815 93.3555 27.0866 94.5636 27.0866C95.7461 27.0866 96.5643 27.9304 96.5707 29.1001H92.4478ZM105.128 35H107.896V30.7557H110.222C113.233 30.7557 114.985 28.9595 114.985 26.3452C114.985 23.7436 113.265 21.9091 110.293 21.9091H105.128V35ZM107.896 28.5376V24.1719H109.762C111.36 24.1719 112.134 25.0412 112.134 26.3452C112.134 27.6428 111.36 28.5376 109.775 28.5376H107.896ZM119.454 21.9091H116.731V35H119.454V21.9091ZM124.435 35.1854C125.886 35.1854 126.826 34.5526 127.305 33.6385H127.382V35H129.964V28.3778C129.964 26.0384 127.983 25.054 125.797 25.054C123.444 25.054 121.898 26.179 121.52 27.9688L124.039 28.1733C124.224 27.5213 124.806 27.0419 125.784 27.0419C126.711 27.0419 127.241 27.5085 127.241 28.3139V28.3523C127.241 28.9851 126.57 29.0682 124.863 29.2344C122.92 29.4134 121.175 30.0653 121.175 32.2578C121.175 34.201 122.562 35.1854 124.435 35.1854ZM125.215 33.3061C124.378 33.3061 123.777 32.9162 123.777 32.1683C123.777 31.4013 124.41 31.0241 125.368 30.8899C125.963 30.8068 126.934 30.6662 127.26 30.4489V31.4908C127.26 32.5199 126.41 33.3061 125.215 33.3061ZM133.406 38.6818C135.433 38.6818 136.507 37.6463 137.063 36.0611L140.879 25.1946L137.996 25.1818L135.944 32.392H135.842L133.809 25.1818H130.945L134.468 35.2812L134.308 35.6967C133.95 36.6172 133.266 36.6619 132.307 36.3679L131.693 38.4006C132.083 38.5668 132.716 38.6818 133.406 38.6818Z" fill="#203A59"/>
<path d="M46.8523 8H47.7614C47.4915 6.59375 46.3125 5.62784 44.7784 5.62784C42.9141 5.62784 41.5966 7.0625 41.5966 9.36364C41.5966 11.6648 42.9034 13.0994 44.8352 13.0994C46.5682 13.0994 47.804 11.9453 47.804 10.1449V9.36364H45.0341V10.1449H46.9517C46.9268 11.4517 46.0675 12.2756 44.8352 12.2756C43.4858 12.2756 42.4489 11.2528 42.4489 9.36364C42.4489 7.47443 43.4858 6.4517 44.7784 6.4517C45.8295 6.4517 46.5433 7.04474 46.8523 8ZM51.4856 13.1136C52.5936 13.1136 53.4032 12.5597 53.6589 11.7358L52.8493 11.5085C52.6362 12.0767 52.1426 12.3608 51.4856 12.3608C50.502 12.3608 49.8237 11.7251 49.7846 10.5568H53.7441V10.2017C53.7441 8.17045 52.5368 7.47443 51.4004 7.47443C49.9231 7.47443 48.943 8.6392 48.943 10.3153C48.943 11.9915 49.9089 13.1136 51.4856 13.1136ZM49.7846 9.83239C49.8414 8.98366 50.4416 8.22727 51.4004 8.22727C52.3095 8.22727 52.8919 8.90909 52.8919 9.83239H49.7846ZM57.3912 7.54545H56.2264V6.23864H55.3883V7.54545H54.5645V8.25568H55.3883V11.6648C55.3883 12.6165 56.1554 13.071 56.8656 13.071C57.1781 13.071 57.377 13.0142 57.4906 12.9716L57.3201 12.2188C57.2491 12.233 57.1355 12.2614 56.9508 12.2614C56.5815 12.2614 56.2264 12.1477 56.2264 11.4375V8.25568H57.3912V7.54545ZM61.4643 13H62.3024V7.54545H61.4643V13ZM61.8904 6.63636C62.2172 6.63636 62.487 6.38068 62.487 6.06818C62.487 5.75568 62.2172 5.5 61.8904 5.5C61.5637 5.5 61.2939 5.75568 61.2939 6.06818C61.2939 6.38068 61.5637 6.63636 61.8904 6.63636ZM66.2095 7.54545H65.0447V6.23864H64.2067V7.54545H63.3828V8.25568H64.2067V11.6648C64.2067 12.6165 64.9737 13.071 65.6839 13.071C65.9964 13.071 66.1953 13.0142 66.3089 12.9716L66.1385 12.2188C66.0675 12.233 65.9538 12.2614 65.7692 12.2614C65.3999 12.2614 65.0447 12.1477 65.0447 11.4375V8.25568H66.2095V7.54545ZM72.4986 13.1136C73.9759 13.1136 74.9702 11.9915 74.9702 10.3011C74.9702 8.59659 73.9759 7.47443 72.4986 7.47443C71.0213 7.47443 70.027 8.59659 70.027 10.3011C70.027 11.9915 71.0213 13.1136 72.4986 13.1136ZM72.4986 12.3608C71.3764 12.3608 70.8651 11.3949 70.8651 10.3011C70.8651 9.20739 71.3764 8.22727 72.4986 8.22727C73.6207 8.22727 74.1321 9.20739 74.1321 10.3011C74.1321 11.3949 73.6207 12.3608 72.4986 12.3608ZM77.0875 9.71875C77.0875 8.76705 77.677 8.22727 78.4796 8.22727C79.2573 8.22727 79.7296 8.73509 79.7296 9.59091V13H80.5676V9.53409C80.5676 8.14205 79.8255 7.47443 78.7211 7.47443C77.8972 7.47443 77.3858 7.84375 77.1301 8.39773H77.0591V7.54545H76.2495V13H77.0875V9.71875Z" fill="#203A59"/>
<g clip-path="url(#clip0_20_241)">
<path d="M0.570563 4.49936C0.169412 4.98073 -0.0330636 5.59696 0.00440888 6.22244V33.4471C-0.0330636 34.0725 0.169412 34.6888 0.570563 35.1701L0.656717 35.2563L15.9059 20.0194V19.6624L0.656717 4.41321L0.570563 4.49936Z" fill="url(#paint0_linear_20_241)"/>
<path d="M20.9521 25.1025L15.9059 20.0194V19.6625L20.9521 14.5671L21.0629 14.6287L27.1059 18.0625C28.829 19.0348 28.829 20.6348 27.1059 21.6194L21.0875 25.041L20.9521 25.1025Z" fill="url(#paint1_linear_20_241)"/>
<path d="M21.0998 25.0287L15.9059 19.8348L0.570557 35.1702C1.29513 35.8072 2.37047 35.8382 3.13056 35.2441L21.1121 25.0287" fill="url(#paint2_linear_20_241)"/>
<path d="M21.0998 14.641L3.11826 4.42557C2.35817 3.83144 1.28283 3.86246 0.558258 4.49941L15.906 19.8348L21.0998 14.641Z" fill="url(#paint3_linear_20_241)"/>
</g>
<defs>
<linearGradient id="paint0_linear_20_241" x1="9.70803" y1="5.93936" x2="-3.36439" y2="19.0118" gradientUnits="userSpaceOnUse">
<stop stop-color="#00A0FF"/>
<stop offset="0.01" stop-color="#00A1FF"/>
<stop offset="0.26" stop-color="#00BEFF"/>
<stop offset="0.51" stop-color="#00D2FF"/>
<stop offset="0.76" stop-color="#00DFFF"/>
<stop offset="1" stop-color="#00E3FF"/>
</linearGradient>
<linearGradient id="paint1_linear_20_241" x1="29.3583" y1="19.8348" x2="-0.414055" y2="19.8348" gradientUnits="userSpaceOnUse">
<stop stop-color="#FFE000"/>
<stop offset="0.41" stop-color="#FFBD00"/>
<stop offset="0.78" stop-color="#FFA500"/>
<stop offset="1" stop-color="#FF9C00"/>
</linearGradient>
<linearGradient id="paint2_linear_20_241" x1="18.2813" y1="24.7296" x2="-4.05029" y2="47.0514" gradientUnits="userSpaceOnUse">
<stop stop-color="#FF3A44"/>
<stop offset="1" stop-color="#C31162"/>
</linearGradient>
<linearGradient id="paint3_linear_20_241" x1="-3.29405" y1="2.1265" x2="6.67361" y2="12.0942" gradientUnits="userSpaceOnUse">
<stop stop-color="#32A071"/>
<stop offset="0.07" stop-color="#2DA771"/>
<stop offset="0.48" stop-color="#15CF74"/>
<stop offset="0.8" stop-color="#06E775"/>
<stop offset="1" stop-color="#00F076"/>
</linearGradient>
<clipPath id="clip0_20_241">
<rect width="29" height="32" fill="white" transform="translate(0 4)"/>
</clipPath>
</defs>
</svg>
