<svg width="50" height="47" viewBox="0 0 50 47" fill="none" xmlns="http://www.w3.org/2000/svg">
<path d="M42.5594 46.1833H7.2462C3.26079 46.1833 0 43.0201 0 39.1539V7.02943C0 3.16324 3.26079 0 7.2462 0H42.5594C46.5448 0 49.8056 3.16324 49.8056 7.02943V39.1539C49.8056 43.0201 46.5448 46.1833 42.5594 46.1833Z" fill="url(#paint0_linear_235_2)"/>
<path d="M44.8659 27.1183C43.9997 25.4441 42.0522 24.8502 40.5117 25.7916L26.8618 34.1374L17.4558 27.7564V17.6542L26.513 11.1089L32.9252 14.7354L23.1296 21.5776C21.6414 22.6137 21.2112 24.7618 22.1646 26.3791C23.118 27.9965 25.0945 28.464 26.5828 27.4279L41.0232 17.351C41.9824 16.6813 42.5405 15.5062 42.4882 14.2679C42.4359 13.0296 41.779 11.9176 40.7674 11.3427L27.792 4.00138C27.7338 3.9698 27.6757 3.94452 27.6176 3.91925C27.5711 3.89398 27.5245 3.87503 27.478 3.85607C27.3094 3.78658 27.1409 3.7234 26.9665 3.68549C26.9432 3.67917 26.9141 3.67917 26.8909 3.67286C26.7397 3.64127 26.5828 3.62863 26.4258 3.62231C26.3735 3.62231 26.3212 3.62231 26.2689 3.62231C26.1003 3.62231 25.9317 3.64127 25.7631 3.67286C25.7398 3.67917 25.7108 3.68549 25.6875 3.69181C25.5247 3.72972 25.362 3.78026 25.205 3.84344C25.1527 3.86239 25.1062 3.88766 25.0597 3.90662C24.8853 3.98875 24.7167 4.0772 24.5597 4.19724L5.95687 17.6289C4.48608 18.6903 4.08496 20.8447 5.06161 22.4431C5.67783 23.4477 6.69517 23.9973 7.72995 23.9973C8.34036 23.9973 8.95076 23.8078 9.49722 23.4161L11.0785 22.2726V29.6897C11.0785 30.8901 11.6482 32.002 12.5841 32.6401L25.1004 41.1313C25.6178 41.4851 26.2049 41.6557 26.7921 41.6557C27.3327 41.6557 27.8733 41.504 28.3617 41.2071L43.6625 31.8504C45.1856 30.909 45.7321 28.7862 44.8659 27.1183Z" fill="white"/>
<defs>
<linearGradient id="paint0_linear_235_2" x1="24.9028" y1="46.1833" x2="24.9028" y2="-2.93538" gradientUnits="userSpaceOnUse">
<stop stop-color="#A734FF"/>
<stop offset="1" stop-color="#D092FF"/>
</linearGradient>
</defs>
</svg>
