<svg width="585" height="597" viewBox="0 0 585 597" fill="none" xmlns="http://www.w3.org/2000/svg">
<ellipse cx="291.562" cy="277.006" rx="135.988" ry="135.531" stroke="url(#paint0_linear_276_3)" stroke-width="30"/>
<circle cx="291.563" cy="277.464" r="174.45" stroke="url(#paint1_linear_276_3)" stroke-opacity="0.3" stroke-width="5"/>
<ellipse cx="291.562" cy="277.006" rx="204.669" ry="204.212" stroke="url(#paint2_linear_276_3)" stroke-opacity="0.3" stroke-width="2"/>
<circle cx="410.61" cy="7.97037" r="7.78385" fill="#D767C5"/>
<circle cx="88.7247" cy="251.365" r="7.32597" fill="#A836FF"/>
<ellipse cx="502.271" cy="553.5" rx="6.5" ry="7.5" fill="url(#paint3_linear_276_3)"/>
<rect x="57" y="29" width="103" height="107" rx="16" fill="url(#paint4_linear_276_3)"/>
<rect x="57" y="413" width="103" height="107" rx="16" fill="url(#paint5_linear_276_3)"/>
<rect x="425" y="23" width="102.564" height="117.216" rx="24" fill="url(#paint6_linear_276_3)"/>
<circle cx="573.5" cy="305.866" r="11.5" fill="url(#paint7_linear_276_3)"/>
<circle opacity="0.9" cx="109" cy="63" r="18" fill="white"/>
<path d="M93.0107 94.7061V93.4585H93.3354C93.9826 93.4585 94.5716 93.2899 95.1025 92.9526C95.6335 92.6131 95.9582 92.1665 96.0767 91.6128H97.9121V102H95.4614V94.7061H93.0107ZM102.386 102V99.6484H104.837V102H102.386ZM107.137 98.9888H109.448C109.486 99.4012 109.655 99.759 109.954 100.062C110.252 100.365 110.662 100.517 111.184 100.517C111.877 100.517 112.344 100.294 112.585 99.8501C112.827 99.4058 112.948 98.9136 112.948 98.3735C112.948 97.9246 112.862 97.5555 112.691 97.2661C112.521 96.9767 112.304 96.7671 112.042 96.6372C111.782 96.5073 111.51 96.4424 111.225 96.4424C110.915 96.4424 110.605 96.5039 110.295 96.627C109.986 96.75 109.763 96.9357 109.629 97.1841H107.332L107.992 91.6128H114.626V93.4175H109.588L109.294 95.6733C109.968 95.1789 110.799 94.9316 111.786 94.9316C112.446 94.9316 113.042 95.0695 113.573 95.3452C114.106 95.6209 114.525 96.0231 114.828 96.5518C115.133 97.0781 115.286 97.6991 115.286 98.4146C115.286 99.1369 115.127 99.7852 114.811 100.359C114.494 100.934 114.021 101.384 113.392 101.709C112.763 102.033 112.008 102.195 111.126 102.195C110.205 102.195 109.449 102.038 108.856 101.723C108.266 101.406 107.839 101.007 107.575 100.523C107.31 100.038 107.165 99.5265 107.137 98.9888ZM119.575 95.8408L123.567 91.6128H126.62L122.446 95.9092L126.927 102H123.875L120.751 97.519L119.575 98.7085V102H117.128V91.6128H119.575V95.8408Z" fill="white"/>
<path d="M74.6258 112.5C74.6258 116.16 77.5058 116.21 77.9658 116.21C78.3958 116.21 81.3058 116.16 81.3058 112.5C81.3058 109.65 79.5158 108.79 77.9658 108.79C76.0158 108.79 74.6258 110.05 74.6258 112.5ZM75.6258 112.5C75.6258 111.74 75.8258 109.58 77.9658 109.58C79.5758 109.58 80.3058 110.85 80.3058 112.5C80.3058 115.32 78.4458 115.42 77.9658 115.42C75.9658 115.42 75.6258 113.63 75.6258 112.5ZM82.4739 110.92V116H83.3539V113.23C83.3539 111.55 84.3339 111.34 84.8139 111.34C85.9039 111.34 85.8839 112.35 85.8839 112.89V116H86.7639V112.62C86.7639 111.61 86.4239 110.72 85.0939 110.72C84.2939 110.72 83.7039 111.12 83.3539 111.63V110.92H82.4739ZM88.2063 109V116H89.0863V109H88.2063ZM90.5105 110.92V116H91.3905V110.92H90.5105ZM90.5105 109.92H91.3905V109H90.5105V109.92ZM92.8059 110.92V116H93.6859V113.23C93.6859 111.55 94.6659 111.34 95.1459 111.34C96.2359 111.34 96.2159 112.35 96.2159 112.89V116H97.0959V112.62C97.0959 111.61 96.7559 110.72 95.4259 110.72C94.6259 110.72 94.0359 111.12 93.6859 111.63V110.92H92.8059ZM102.198 114.53C102.088 115.09 101.638 115.58 100.788 115.58C99.6284 115.58 99.1784 114.53 99.1784 113.66H103.088C103.088 113.58 103.078 113.49 103.078 113.41C103.028 112.31 102.758 110.72 100.728 110.72C98.3784 110.72 98.2484 112.78 98.2484 113.48C98.2484 113.94 98.2984 116.2 100.818 116.2C102.378 116.2 102.908 115.25 103.038 114.53H102.198ZM99.1784 113.04C99.1784 112.4 99.4484 111.34 100.748 111.34C101.898 111.34 102.128 112.36 102.158 113.04H99.1784ZM111.655 113.68C111.605 114.68 110.795 115.42 109.675 115.42C108.195 115.42 107.305 114.21 107.305 112.58C107.305 111.06 107.855 109.58 109.605 109.58C111.205 109.58 111.515 110.65 111.565 111.16H112.505C112.395 110.09 111.835 108.79 109.605 108.79C109.015 108.79 106.305 108.9 106.305 112.62C106.305 114.86 107.555 116.21 109.635 116.21C111.885 116.21 112.465 114.68 112.595 113.68H111.655ZM113.405 113.46C113.405 114.81 114.055 116.2 115.905 116.2C117.755 116.2 118.405 114.81 118.405 113.46C118.405 112.11 117.755 110.72 115.905 110.72C114.055 110.72 113.405 112.11 113.405 113.46ZM114.335 113.45C114.335 111.41 115.515 111.32 115.905 111.32C116.295 111.32 117.475 111.41 117.475 113.45C117.475 115.49 116.295 115.58 115.905 115.58C115.515 115.58 114.335 115.49 114.335 113.45ZM123.844 116V110.92H122.964V113.69C122.964 114.05 122.984 115.58 121.504 115.58C120.874 115.58 120.434 115.31 120.434 114.03V110.92H119.554V114.29C119.554 115.05 119.724 116.2 121.224 116.2C121.404 116.2 122.434 116.16 122.944 115.28H122.964V116H123.844ZM128.126 110.72L127.866 110.73C127.156 110.76 126.426 111.15 126.186 111.9H126.166V110.92H125.286V116H126.166V113.66V113.39C126.166 113.3 126.166 113.21 126.176 113.12C126.256 111.84 126.946 111.39 128.126 111.34V110.72ZM128.364 114.49C128.394 115.42 129.104 116.2 130.614 116.2C130.844 116.2 132.704 116.16 132.704 114.56C132.704 113.51 131.934 113.32 130.894 113.08C130.164 112.92 129.494 112.86 129.494 112.14C129.494 111.33 130.434 111.34 130.544 111.34C131.554 111.34 131.704 111.96 131.734 112.25H132.574C132.524 111.69 132.244 110.72 130.514 110.72C129.594 110.72 128.584 111.05 128.584 112.18C128.584 113.25 129.334 113.47 130.184 113.66L130.724 113.78C131.714 114.02 131.794 114.29 131.794 114.62C131.794 114.83 131.804 115.58 130.624 115.58C129.944 115.58 129.274 115.3 129.244 114.49H128.364ZM137.443 114.53C137.333 115.09 136.883 115.58 136.033 115.58C134.873 115.58 134.423 114.53 134.423 113.66H138.333C138.333 113.58 138.323 113.49 138.323 113.41C138.273 112.31 138.003 110.72 135.973 110.72C133.623 110.72 133.493 112.78 133.493 113.48C133.493 113.94 133.543 116.2 136.063 116.2C137.623 116.2 138.153 115.25 138.283 114.53H137.443ZM134.423 113.04C134.423 112.4 134.693 111.34 135.993 111.34C137.143 111.34 137.373 112.36 137.403 113.04H134.423ZM139.126 114.49C139.156 115.42 139.866 116.2 141.376 116.2C141.606 116.2 143.466 116.16 143.466 114.56C143.466 113.51 142.696 113.32 141.656 113.08C140.926 112.92 140.256 112.86 140.256 112.14C140.256 111.33 141.196 111.34 141.306 111.34C142.316 111.34 142.466 111.96 142.496 112.25H143.336C143.286 111.69 143.006 110.72 141.276 110.72C140.356 110.72 139.346 111.05 139.346 112.18C139.346 113.25 140.096 113.47 140.946 113.66L141.486 113.78C142.476 114.02 142.556 114.29 142.556 114.62C142.556 114.83 142.566 115.58 141.386 115.58C140.706 115.58 140.036 115.3 140.006 114.49H139.126Z" fill="white"/>
<path d="M100.004 484.137V486H92.04V485.58C92.04 484.976 92.1597 484.445 92.3989 483.987C92.6382 483.529 92.9959 483.098 93.4722 482.695C93.9507 482.289 94.6206 481.808 95.4819 481.252C96.0493 480.89 96.48 480.594 96.7739 480.364C97.0701 480.134 97.2946 479.888 97.4473 479.625C97.6022 479.361 97.6797 479.046 97.6797 478.679C97.6797 478.134 97.5133 477.736 97.1807 477.486C96.8503 477.235 96.4663 477.11 96.0288 477.11C95.5184 477.11 95.0968 477.258 94.7642 477.554C94.4315 477.85 94.2651 478.277 94.2651 478.833V479.208H91.9956V478.887C91.9956 478.363 92.1095 477.838 92.3374 477.312C92.5653 476.785 92.9868 476.335 93.6021 475.961C94.2173 475.588 95.0592 475.401 96.1279 475.401C96.8252 475.401 97.4678 475.509 98.0557 475.726C98.6458 475.94 99.1198 476.285 99.4775 476.761C99.8376 477.237 100.018 477.844 100.018 478.58C100.018 479.22 99.8763 479.775 99.5938 480.244C99.3112 480.711 98.9785 481.092 98.5957 481.386C98.2129 481.677 97.7401 481.988 97.1772 482.319C96.4299 482.759 95.9058 483.095 95.605 483.327C95.3042 483.557 95.0763 483.827 94.9214 484.137H100.004ZM102.379 486V483.648H104.83V486H102.379ZM111.205 486.181C110.485 486.181 109.806 486.083 109.167 485.887C108.532 485.691 108.01 485.357 107.602 484.886C107.194 484.414 106.99 483.797 106.99 483.033C106.99 481.775 107.611 480.921 108.853 480.47C108.368 480.299 107.992 480.013 107.725 479.612C107.458 479.211 107.325 478.755 107.325 478.245C107.325 477.743 107.456 477.28 107.718 476.854C107.983 476.427 108.405 476.084 108.986 475.825C109.57 475.563 110.309 475.432 111.205 475.432C111.865 475.432 112.489 475.523 113.074 475.705C113.662 475.887 114.144 476.189 114.52 476.611C114.896 477.032 115.084 477.577 115.084 478.245C115.084 478.81 114.942 479.283 114.657 479.663C114.374 480.044 114.007 480.312 113.556 480.47C114.798 480.923 115.419 481.778 115.419 483.033C115.419 483.617 115.299 484.113 115.06 484.523C114.821 484.934 114.498 485.259 114.093 485.501C113.689 485.743 113.239 485.916 112.743 486.021C112.248 486.128 111.736 486.181 111.205 486.181ZM111.205 484.476C111.704 484.476 112.153 484.353 112.551 484.106C112.95 483.858 113.149 483.434 113.149 482.835C113.149 482.404 113.004 482.019 112.712 481.68C112.42 481.34 111.918 481.17 111.205 481.17C110.715 481.17 110.324 481.258 110.032 481.434C109.741 481.607 109.539 481.819 109.427 482.069C109.316 482.32 109.26 482.575 109.26 482.835C109.26 483.434 109.459 483.858 109.858 484.106C110.257 484.353 110.706 484.476 111.205 484.476ZM111.205 479.796C111.626 479.796 112.02 479.695 112.387 479.492C112.756 479.289 112.941 478.92 112.941 478.385C112.941 477.836 112.735 477.479 112.322 477.315C111.91 477.151 111.537 477.069 111.205 477.069C110.863 477.069 110.49 477.151 110.087 477.315C109.684 477.479 109.482 477.836 109.482 478.385C109.482 478.923 109.66 479.293 110.015 479.496C110.373 479.696 110.769 479.796 111.205 479.796ZM119.568 479.841L123.561 475.613H126.613L122.439 479.909L126.92 486H123.868L120.744 481.519L119.568 482.708V486H117.121V475.613H119.568V479.841Z" fill="white"/>
<path d="M80.8367 496.5C80.8367 500.16 83.7167 500.21 84.1767 500.21C84.6067 500.21 87.5167 500.16 87.5167 496.5C87.5167 493.65 85.7267 492.79 84.1767 492.79C82.2267 492.79 80.8367 494.05 80.8367 496.5ZM81.8367 496.5C81.8367 495.74 82.0367 493.58 84.1767 493.58C85.7867 493.58 86.5167 494.85 86.5167 496.5C86.5167 499.32 84.6567 499.42 84.1767 499.42C82.1767 499.42 81.8367 497.63 81.8367 496.5ZM92.9748 500V494.92H92.0948V497.69C92.0948 498.05 92.1148 499.58 90.6348 499.58C90.0048 499.58 89.5648 499.31 89.5648 498.03V494.92H88.6848V498.29C88.6848 499.05 88.8548 500.2 90.3548 500.2C90.5348 500.2 91.5648 500.16 92.0748 499.28H92.0948V500H92.9748ZM97.2573 494.72L96.9973 494.73C96.2873 494.76 95.5573 495.15 95.3173 495.9H95.2973V494.92H94.4173V500H95.2973V497.66V497.39C95.2973 497.3 95.2973 497.21 95.3073 497.12C95.3873 495.84 96.0773 495.39 97.2573 495.34V494.72ZM103.793 500H104.553L106.823 494.12H106.853L106.833 494.39V500H107.773V493H106.363L104.173 498.76L101.983 493H100.573V500H101.513V494.39L101.493 494.12H101.513L103.793 500ZM112.999 498.53C112.889 499.09 112.439 499.58 111.589 499.58C110.429 499.58 109.979 498.53 109.979 497.66H113.889C113.889 497.58 113.879 497.49 113.879 497.41C113.829 496.31 113.559 494.72 111.529 494.72C109.179 494.72 109.049 496.78 109.049 497.48C109.049 497.94 109.099 500.2 111.619 500.2C113.179 500.2 113.709 499.25 113.839 498.53H112.999ZM109.979 497.04C109.979 496.4 110.249 495.34 111.549 495.34C112.699 495.34 112.929 496.36 112.959 497.04H109.979ZM115.042 494.92V500H115.922V497.23C115.922 495.55 116.902 495.34 117.382 495.34C118.472 495.34 118.452 496.35 118.452 496.89V500H119.332V496.62C119.332 495.61 118.992 494.72 117.662 494.72C116.862 494.72 116.272 495.12 115.922 495.63V494.92H115.042ZM120.185 494.92V495.54H121.095V498.95C121.095 499.48 121.085 500.2 122.135 500.2C122.445 500.2 122.775 500.12 123.055 500V499.38C122.885 499.43 122.695 499.47 122.505 499.47C121.945 499.47 121.975 499.14 121.975 498.77V495.54H123.055V494.92H121.975V493.4H121.095V494.92H120.185ZM123.688 497.46C123.688 498.81 124.338 500.2 126.188 500.2C128.038 500.2 128.688 498.81 128.688 497.46C128.688 496.11 128.038 494.72 126.188 494.72C124.338 494.72 123.688 496.11 123.688 497.46ZM124.618 497.45C124.618 495.41 125.798 495.32 126.188 495.32C126.578 495.32 127.758 495.41 127.758 497.45C127.758 499.49 126.578 499.58 126.188 499.58C125.798 499.58 124.618 499.49 124.618 497.45ZM132.677 494.72L132.417 494.73C131.707 494.76 130.977 495.15 130.737 495.9H130.717V494.92H129.837V500H130.717V497.66V497.39C130.717 497.3 130.717 497.21 130.727 497.12C130.807 495.84 131.497 495.39 132.677 495.34V494.72ZM132.915 498.49C132.945 499.42 133.655 500.2 135.165 500.2C135.395 500.2 137.255 500.16 137.255 498.56C137.255 497.51 136.485 497.32 135.445 497.08C134.715 496.92 134.045 496.86 134.045 496.14C134.045 495.33 134.985 495.34 135.095 495.34C136.105 495.34 136.255 495.96 136.285 496.25H137.125C137.075 495.69 136.795 494.72 135.065 494.72C134.145 494.72 133.135 495.05 133.135 496.18C133.135 497.25 133.885 497.47 134.735 497.66L135.275 497.78C136.265 498.02 136.345 498.29 136.345 498.62C136.345 498.83 136.355 499.58 135.175 499.58C134.495 499.58 133.825 499.3 133.795 498.49H132.915Z" fill="white"/>
<circle opacity="0.9" cx="109" cy="447" r="18" fill="white"/>
<path d="M461.928 95.9888H464.239C464.278 96.4012 464.446 96.759 464.745 97.062C465.043 97.3651 465.453 97.5166 465.975 97.5166C466.668 97.5166 467.135 97.2944 467.376 96.8501C467.618 96.4058 467.739 95.9136 467.739 95.3735C467.739 94.9246 467.653 94.5555 467.482 94.2661C467.312 93.9767 467.095 93.7671 466.833 93.6372C466.573 93.5073 466.301 93.4424 466.016 93.4424C465.706 93.4424 465.396 93.5039 465.086 93.627C464.777 93.75 464.554 93.9357 464.42 94.1841H462.123L462.783 88.6128H469.417V90.4175H464.379L464.085 92.6733C464.759 92.1789 465.59 91.9316 466.577 91.9316C467.237 91.9316 467.833 92.0695 468.364 92.3452C468.897 92.6209 469.316 93.0231 469.619 93.5518C469.924 94.0781 470.077 94.6991 470.077 95.4146C470.077 96.1369 469.918 96.7852 469.602 97.3594C469.285 97.9336 468.812 98.3836 468.183 98.7095C467.554 99.033 466.799 99.1948 465.917 99.1948C464.996 99.1948 464.24 99.0376 463.647 98.7231C463.057 98.4064 462.63 98.0065 462.366 97.5234C462.101 97.0381 461.956 96.5265 461.928 95.9888ZM475.6 99.1948C474.693 99.1948 473.925 98.9761 473.296 98.5386C472.667 98.0988 472.196 97.4733 471.881 96.6621C471.569 95.8509 471.413 94.8984 471.413 93.8047C471.413 92.7109 471.569 91.7585 471.881 90.9473C472.196 90.1361 472.667 89.5117 473.296 89.0742C473.925 88.6344 474.693 88.4146 475.6 88.4146C476.723 88.4146 477.597 88.7108 478.222 89.3032C478.846 89.8957 479.265 90.5952 479.479 91.4019C479.694 92.2085 479.801 93.0094 479.801 93.8047C479.801 94.6022 479.694 95.4043 479.479 96.2109C479.265 97.0153 478.846 97.7137 478.222 98.3062C477.597 98.8986 476.723 99.1948 475.6 99.1948ZM475.6 97.4893C476.149 97.4893 476.561 97.2922 476.834 96.8979C477.11 96.5015 477.283 96.0446 477.354 95.5273C477.426 95.0078 477.463 94.4336 477.463 93.8047C477.463 93.1758 477.426 92.6027 477.354 92.0854C477.283 91.5682 477.11 91.1125 476.834 90.7183C476.561 90.3218 476.149 90.1235 475.6 90.1235C474.821 90.1235 474.315 90.4847 474.083 91.207C473.852 91.9271 473.737 92.793 473.737 93.8047C473.737 94.8164 473.852 95.6834 474.083 96.4058C474.315 97.1281 474.821 97.4893 475.6 97.4893ZM481.192 93.2168H485.017V89.3955H486.192V93.2168H490.014V94.3926H486.192V98.2173H485.017V94.3926H481.192V93.2168Z" fill="white"/>
<path d="M448.07 111.35V112.14H450.07C450.07 113 449.67 114.42 447.95 114.42C445.71 114.42 445.56 111.97 445.56 111.46C445.56 110.71 445.75 108.58 447.96 108.58C449.41 108.58 449.84 109.43 449.89 110.07H450.83C450.7 108.92 449.85 107.79 447.98 107.79C445.9 107.79 444.56 109.06 444.56 111.43C444.56 114.24 446.18 115.21 447.85 115.21C448.96 115.21 449.78 114.71 450.18 113.87H450.2V115H450.93V111.35H448.07ZM451.943 112.46C451.943 113.81 452.593 115.2 454.443 115.2C456.293 115.2 456.943 113.81 456.943 112.46C456.943 111.11 456.293 109.72 454.443 109.72C452.593 109.72 451.943 111.11 451.943 112.46ZM452.873 112.45C452.873 110.41 454.053 110.32 454.443 110.32C454.833 110.32 456.013 110.41 456.013 112.45C456.013 114.49 454.833 114.58 454.443 114.58C454.053 114.58 452.873 114.49 452.873 112.45ZM457.802 112.46C457.802 113.81 458.452 115.2 460.302 115.2C462.152 115.2 462.802 113.81 462.802 112.46C462.802 111.11 462.152 109.72 460.302 109.72C458.452 109.72 457.802 111.11 457.802 112.46ZM458.732 112.45C458.732 110.41 459.912 110.32 460.302 110.32C460.692 110.32 461.872 110.41 461.872 112.45C461.872 114.49 460.692 114.58 460.302 114.58C459.912 114.58 458.732 114.49 458.732 112.45ZM464.051 115.57C464.371 116.95 465.741 116.93 466.231 116.93C466.721 116.93 468.511 116.82 468.511 114.87V109.92H467.691V110.62H467.661C467.341 110.03 466.741 109.72 465.901 109.72C463.701 109.72 463.701 111.95 463.701 112.42C463.701 114.38 464.791 115.2 465.991 115.2C466.741 115.2 467.161 114.93 467.631 114.17V114.72C467.631 114.99 467.611 116.3 466.231 116.3C465.691 116.3 465.051 116.16 464.891 115.57H464.051ZM466.191 114.58C465.781 114.58 464.631 114.44 464.631 112.39C464.631 111.98 464.631 110.34 466.111 110.34C467.151 110.34 467.691 111.12 467.691 112.4C467.691 114.36 466.511 114.58 466.191 114.58ZM469.948 108V115H470.828V108H469.948ZM475.932 113.53C475.822 114.09 475.372 114.58 474.522 114.58C473.362 114.58 472.912 113.53 472.912 112.66H476.822C476.822 112.58 476.812 112.49 476.812 112.41C476.762 111.31 476.492 109.72 474.462 109.72C472.112 109.72 471.982 111.78 471.982 112.48C471.982 112.94 472.032 115.2 474.552 115.2C476.112 115.2 476.642 114.25 476.772 113.53H475.932ZM472.912 112.04C472.912 111.4 473.182 110.34 474.482 110.34C475.632 110.34 475.862 111.36 475.892 112.04H472.912ZM481.219 113.19H484.179L484.839 115H485.849L483.199 108H482.199L479.549 115H480.559L481.219 113.19ZM481.479 112.4L482.699 108.95L483.919 112.4H481.479ZM489.41 110.93L490.47 115H491.41L493.05 109.92H492.14L490.9 113.99L489.84 109.92H488.98L487.92 113.99L486.68 109.92H485.77L487.41 115H488.35L489.41 110.93ZM494.397 111.42C494.367 110.36 495.397 110.34 495.717 110.34C496.837 110.34 496.857 111.12 496.857 111.36C496.857 112.02 496.617 112.01 495.867 112.06C493.827 112.25 493.377 112.79 493.377 113.67C493.377 114.74 494.097 115.2 495.167 115.2C495.857 115.2 496.557 114.94 496.907 114.3C497.017 114.96 497.317 115.04 497.817 115.04C498.007 115.04 498.097 115.03 498.217 115V114.38C497.677 114.41 497.687 114.17 497.687 113.78L497.737 111.43C497.767 109.95 496.537 109.72 495.717 109.72C493.917 109.72 493.557 110.74 493.557 111.42H494.397ZM496.837 112.83C496.757 114.24 495.957 114.58 495.267 114.58C494.697 114.58 494.287 114.24 494.287 113.64C494.287 112.82 494.957 112.78 495.737 112.65C496.297 112.57 496.597 112.61 496.857 112.4L496.837 112.83ZM502.094 109.72L501.834 109.73C501.124 109.76 500.394 110.15 500.154 110.9H500.134V109.92H499.254V115H500.134V112.66V112.39C500.134 112.3 500.134 112.21 500.144 112.12C500.224 110.84 500.914 110.39 502.094 110.34V109.72ZM506.293 108V110.58C505.883 109.89 505.303 109.72 504.623 109.72C502.663 109.72 502.333 111.38 502.333 112.45C502.333 114.08 503.163 115.2 504.643 115.2C505.713 115.2 506.153 114.63 506.323 114.3H506.353V115H507.173V108H506.293ZM503.263 112.45C503.263 110.96 503.943 110.34 504.783 110.34C505.623 110.34 506.353 110.96 506.353 112.43C506.353 114 505.603 114.58 504.833 114.58C504.323 114.58 503.263 114.37 503.263 112.45Z" fill="white"/>
<circle opacity="0.9" cx="476" cy="58" r="18" fill="white"/>
<path d="M483.92 66.2405L481.397 65.6852L480.615 68.1539C480.558 68.3314 480.318 68.3574 480.225 68.196L477.104 62.7738C478.641 62.4407 480.009 61.6511 481.06 60.5537L484.151 65.9247C484.244 66.0858 484.101 66.2804 483.92 66.2405Z" fill="#FD646F"/>
<path d="M483.92 66.2405L481.588 65.7272C481.48 65.7034 481.371 65.766 481.338 65.8716L480.615 68.1539C480.558 68.3314 480.318 68.3574 480.225 68.196L477.551 63.5505L477.104 62.7738C478.641 62.4407 480.009 61.6511 481.06 60.5537L481.504 61.3244L484.151 65.9247C484.244 66.0858 484.101 66.2805 483.92 66.2405V66.2405Z" fill="#FD646F"/>
<path d="M483.92 66.2406L481.588 65.7273C481.48 65.7038 481.371 65.7663 481.338 65.8716L481.589 65.0916C481.623 64.9864 481.731 64.9243 481.839 64.9482L483.846 65.3943L484.151 65.9251C484.244 66.086 484.101 66.2808 483.92 66.2406Z" fill="#FC4755"/>
<path d="M474.269 62.7089L471.099 68.2159C471.006 68.3773 470.766 68.3513 470.709 68.1738L469.986 65.8914C469.953 65.7859 469.844 65.7233 469.736 65.7471L467.404 66.2603C467.223 66.3003 467.08 66.1057 467.173 65.9446L470.122 60.8213C471.223 61.865 472.708 62.4517 474.269 62.7089Z" fill="#FD646F"/>
<path d="M470.539 61.5832L467.911 66.1484L467.404 66.26C467.223 66.3001 467.08 66.1054 467.173 65.9443L469.683 61.5832L470.362 60.4009C470.545 60.5739 470.735 60.7383 470.934 60.8929L470.539 61.5832Z" fill="#FC4755"/>
<path d="M471.408 67.6782L471.099 68.2158C471.006 68.3772 470.766 68.3515 470.709 68.1739L469.986 65.8915C469.953 65.7858 469.845 65.7233 469.736 65.7468L470.536 65.571C470.644 65.5472 470.752 65.6098 470.786 65.7153L471.408 67.6782Z" fill="#FC4755"/>
<path d="M470.193 60.6909L472.278 61.6313L474.27 62.7088L473.736 63.6356C472.247 63.3333 470.866 62.6404 469.724 61.6198C469.71 61.6078 469.697 61.5958 469.683 61.5833L470.193 60.6909Z" fill="#FC4755"/>
<path d="M481.504 61.3244L481.06 60.5537L478.711 61.5904L477.104 62.7738L477.285 63.0874L477.728 63.8578L480.225 68.196C480.318 68.3573 480.558 68.3313 480.615 68.1538L480.774 67.6518L478.292 63.3285C479.493 62.9104 480.587 62.2301 481.504 61.3244V61.3244Z" fill="#FC4755"/>
<path d="M483.431 55.1575C483.431 57.2518 482.607 59.1537 481.266 60.5538C480.215 61.6512 478.847 62.4408 477.31 62.7739C476.778 62.889 476.228 62.9495 475.662 62.9495C475.231 62.9495 474.808 62.9143 474.396 62.8465C472.914 62.6026 471.573 61.938 470.499 60.9789C470.441 60.9273 470.384 60.875 470.327 60.8213C470.127 60.6316 469.937 60.431 469.757 60.2211C469.585 60.0193 469.423 59.8085 469.272 59.5896C468.819 58.9331 468.463 58.2028 468.226 57.4205C468.01 56.7044 467.894 55.9449 467.894 55.1575C467.894 50.8543 471.372 47.3655 475.662 47.3655C476.447 47.3655 477.204 47.4822 477.918 47.6995C478.698 47.9361 479.426 48.2929 480.081 48.7484C480.299 48.9 480.509 49.0622 480.71 49.2353C480.979 49.4654 481.231 49.714 481.466 49.9784C482.688 51.3552 483.431 53.1696 483.431 55.1575V55.1575Z" fill="#FAA515"/>
<path d="M475.662 60.7383C478.735 60.7383 481.226 58.2396 481.226 55.1572C481.226 52.0749 478.735 49.5762 475.662 49.5762C472.589 49.5762 470.098 52.0749 470.098 55.1572C470.098 58.2396 472.589 60.7383 475.662 60.7383Z" fill="#FAD207"/>
<path d="M481.226 55.1571C481.226 58.2394 478.735 60.7381 475.662 60.7381C472.589 60.7381 470.098 58.2394 470.098 55.1571C470.098 54.9244 470.112 54.6952 470.14 54.4702C470.477 57.2287 472.821 59.3642 475.662 59.3642C478.503 59.3642 480.847 57.2287 481.184 54.4702C481.212 54.6952 481.226 54.9244 481.226 55.1571V55.1571Z" fill="#FAA515"/>
<path fill-rule="evenodd" clip-rule="evenodd" d="M475.662 49.5767C472.589 49.5767 470.098 52.0754 470.098 55.1576C470.098 58.2398 472.589 60.7386 475.662 60.7386C478.735 60.7386 481.226 58.2398 481.226 55.1576C481.226 52.0754 478.735 49.5767 475.662 49.5767V49.5767ZM475.662 60.0946C472.948 60.0946 470.74 57.88 470.74 55.1576C470.74 52.4352 472.948 50.2207 475.662 50.2207C478.376 50.2207 480.584 52.4352 480.584 55.1576C480.584 57.88 478.376 60.0946 475.662 60.0946V60.0946Z" fill="#FAF063"/>
<path d="M475.854 52.0711L476.619 53.6325C476.65 53.6961 476.71 53.7402 476.78 53.7502L478.498 53.9971C478.674 54.0223 478.744 54.2383 478.617 54.3622L477.371 55.5754C477.321 55.6247 477.297 55.6957 477.31 55.7653L477.606 57.4806C477.637 57.6559 477.452 57.7895 477.295 57.7063L475.762 56.8938C475.7 56.8606 475.624 56.8606 475.562 56.8938L474.029 57.7063C473.871 57.7896 473.687 57.6559 473.718 57.4806L474.014 55.7653C474.026 55.6957 474.003 55.6247 473.953 55.5754L472.707 54.3622C472.58 54.2383 472.65 54.0223 472.826 53.9971L474.544 53.7502C474.614 53.7402 474.674 53.6961 474.705 53.6325L475.47 52.0711C475.548 51.9112 475.776 51.9112 475.854 52.0711V52.0711Z" fill="#FAA515"/>
<path d="M481.049 56.5974C481.223 56.6328 481.392 56.5207 481.428 56.3465C481.507 55.9576 481.548 55.5575 481.548 55.157C481.548 51.9019 478.907 49.2537 475.662 49.2537C472.417 49.2537 469.776 51.9019 469.776 55.157C469.776 58.4121 472.417 61.0604 475.662 61.0604C477.874 61.0604 479.879 59.8348 480.895 57.862C480.976 57.7039 480.914 57.5097 480.757 57.4281C480.599 57.3465 480.406 57.4085 480.324 57.5665C479.419 59.3243 477.633 60.4164 475.662 60.4164C472.771 60.4164 470.418 58.057 470.418 55.157C470.418 52.2569 472.771 49.8976 475.662 49.8976C478.553 49.8976 480.906 52.2569 480.906 55.157C480.906 55.5141 480.87 55.8708 480.799 56.2173C480.763 56.3916 480.875 56.5617 481.049 56.5974V56.5974Z" fill="#143F6B"/>
<path d="M479.234 53.9596C479.196 53.8428 479.095 53.7578 478.974 53.7404L476.882 53.4398L475.95 51.5367C475.844 51.3002 475.48 51.3003 475.374 51.5367L474.442 53.4397L472.35 53.7403C472.093 53.7688 471.981 54.1158 472.172 54.2901L473.688 55.7668L473.327 57.8556C473.274 58.1092 473.568 58.3241 473.793 58.1954L475.662 57.2051L477.531 58.1954C477.756 58.3241 478.05 58.1092 477.997 57.8556L477.636 55.7668L479.152 54.2901C479.24 54.2046 479.272 54.0764 479.234 53.9596V53.9596ZM477.067 55.4233C476.991 55.4975 476.956 55.6045 476.974 55.7094L477.253 57.3197L475.812 56.5562C475.718 56.5065 475.606 56.5065 475.512 56.5562L474.071 57.3197L474.35 55.7094C474.368 55.6045 474.333 55.4975 474.257 55.4233L473.088 54.2849L474.701 54.0531C474.806 54.038 474.897 53.9718 474.944 53.8762L475.662 52.4092L476.38 53.8762C476.427 53.9718 476.518 54.038 476.623 54.0531L478.236 54.2849L477.067 55.4233Z" fill="#143F6B"/>
<path d="M484.671 66.1836L481.533 60.7324C482.907 59.2775 483.751 57.3143 483.751 55.157C483.751 50.6832 480.123 47.0435 475.662 47.0435C474.29 47.0435 472.934 47.3945 471.741 48.0586C471.586 48.145 471.53 48.341 471.616 48.4965C471.702 48.6519 471.898 48.708 472.053 48.6217C473.15 48.0105 474.399 47.6875 475.662 47.6875C479.768 47.6875 483.109 51.0384 483.109 55.157C483.109 59.2758 479.768 62.6266 475.662 62.6266C471.556 62.6266 468.215 59.2758 468.215 55.157C468.215 52.9474 469.183 50.8633 470.87 49.4391C471.006 49.3246 471.023 49.1215 470.909 48.9855C470.795 48.8494 470.592 48.8318 470.457 48.9464C468.624 50.4932 467.573 52.7569 467.573 55.157C467.573 57.318 468.42 59.2843 469.798 60.7399L468.909 62.2837C468.696 62.6411 469.26 62.9716 469.465 62.6057L470.273 61.2023C471.24 62.07 472.414 62.7084 473.712 63.0318L470.942 67.8444L470.233 65.6074C470.183 65.4488 470.021 65.3548 469.859 65.3904L467.573 65.8934L468.716 63.9071C468.805 63.7531 468.752 63.5562 468.599 63.4673C468.445 63.3784 468.249 63.4311 468.16 63.5851L466.653 66.2033C466.51 66.4333 466.737 66.7458 467 66.6788L469.71 66.0824L470.55 68.7349C470.624 68.9958 471.006 69.0383 471.134 68.7983L474.375 63.1675C474.794 63.235 475.224 63.2706 475.662 63.2706C476.103 63.2706 476.537 63.2344 476.959 63.1658L478.906 66.5477C478.965 66.651 479.073 66.7087 479.184 66.7087C479.238 66.7087 479.294 66.6948 479.344 66.6655C479.498 66.5766 479.55 66.3797 479.462 66.2257L477.622 63.0293C478.919 62.7043 480.093 62.0645 481.058 61.1956L483.751 65.8737L481.465 65.3708C481.303 65.3351 481.141 65.4292 481.091 65.5878L480.382 67.8248L480.211 67.527C480.122 67.373 479.926 67.3203 479.772 67.4092C479.619 67.4982 479.566 67.6951 479.655 67.8491L480.19 68.7787C480.318 69.0187 480.7 68.9761 480.774 68.7153L481.614 66.0628L484.324 66.6592C484.587 66.7259 484.814 66.4136 484.671 66.1836Z" fill="#143F6B"/>
<path d="M120 438H99V456H120V438Z" fill="#383A4F"/>
<path d="M119 439H100V455H119V439Z" fill="white"/>
<path opacity="0.4" d="M119 452H100.449C100.202 452 100 451.772 100 451.489V439H119V452Z" fill="#8B68B4"/>
<path opacity="0.83" d="M119 451H101.265C101.118 451 101 450.867 101 450.702V439H119V451Z" fill="white"/>
<g opacity="0.36">
<path opacity="0.36" d="M117.013 442.215C116.82 441.991 116.438 442.061 116.184 442.054C115.42 442.031 114.657 442.02 113.893 442.025C113.851 442.025 113.812 442.061 113.812 442.109C113.806 442.827 113.825 443.542 113.868 444.258C113.554 443.75 113.214 443.252 112.813 442.825C112.791 442.802 112.746 442.832 112.766 442.862C113.15 443.426 113.549 443.972 113.89 444.566C113.924 444.625 114.026 444.61 114.022 444.53C113.98 443.753 113.961 442.975 113.97 442.197C114.576 442.202 115.182 442.211 115.788 442.226C116.087 442.233 116.39 442.226 116.69 442.252C117.024 442.283 116.952 442.628 117.034 442.879C117.05 442.929 117.109 442.929 117.128 442.88C117.204 442.678 117.153 442.378 117.013 442.215Z" fill="#2A164A"/>
<path opacity="0.36" d="M116.894 443.687C116.8 443.803 116.683 444.068 116.503 444.009C116.4 443.975 116.373 443.816 116.34 443.721C116.303 443.616 116.266 443.51 116.23 443.405C116.212 443.353 116.14 443.326 116.11 443.385C116.058 443.487 116.003 443.587 115.937 443.68C115.891 443.746 115.774 443.939 115.679 443.896C115.603 443.862 115.574 443.703 115.565 443.612C115.616 443.481 115.642 443.34 115.623 443.192C115.615 443.133 115.524 443.116 115.501 443.172C115.445 443.306 115.42 443.446 115.43 443.591C115.411 443.634 115.389 443.675 115.365 443.716C115.283 443.848 115.163 444.013 115.022 444.072C114.834 444.151 114.72 443.952 114.675 443.784C114.65 443.691 114.591 443.349 114.716 443.333C114.755 443.328 114.743 443.265 114.708 443.263C114.684 443.261 114.663 443.26 114.639 443.258C114.627 443.256 114.611 443.265 114.605 443.277C114.517 443.476 114.509 443.707 114.585 443.913C114.652 444.093 114.792 444.26 114.988 444.229C115.184 444.199 115.335 444.006 115.446 443.843C115.454 443.83 115.461 443.816 115.469 443.803C115.497 443.893 115.537 443.979 115.603 444.024C115.815 444.165 116.032 443.825 116.155 443.594C116.193 443.709 116.231 443.825 116.275 443.938C116.317 444.049 116.381 444.136 116.496 444.158C116.743 444.204 116.913 443.957 116.951 443.725C116.953 443.693 116.918 443.657 116.894 443.687Z" fill="#2A164A"/>
<path opacity="0.36" d="M117.991 441.755C117.962 441.719 117.919 441.716 117.877 441.712C117.836 441.709 117.794 441.7 117.756 441.684C117.7 441.658 117.645 441.605 117.638 441.537C117.635 441.471 117.54 441.467 117.54 441.535C117.54 441.54 117.541 441.544 117.543 441.549H117.541C117.553 441.639 117.556 441.734 117.533 441.821C117.522 441.866 117.506 441.907 117.481 441.946C117.462 441.977 117.419 442.034 117.382 442.034C117.347 442.034 117.339 441.972 117.334 441.943C117.326 441.879 117.322 441.814 117.319 441.75C117.315 441.621 117.322 441.494 117.34 441.367C117.344 441.342 117.303 441.335 117.299 441.36C117.277 441.478 117.265 441.599 117.264 441.719C117.262 441.78 117.264 441.841 117.268 441.9C117.27 441.945 117.273 441.991 117.288 442.032C117.302 442.066 117.325 442.097 117.36 442.106C117.407 442.118 117.449 442.088 117.481 442.057C117.543 442.002 117.582 441.923 117.605 441.843C117.615 441.805 117.62 441.768 117.626 441.73C117.643 441.748 117.662 441.762 117.684 441.775C117.732 441.803 117.783 441.818 117.836 441.827C117.889 441.836 117.947 441.845 117.99 441.803C118.004 441.791 118.002 441.768 117.991 441.755Z" fill="#2A164A"/>
<path opacity="0.36" d="M112.547 447.496C112.507 447.559 112.406 447.56 112.351 447.521C112.278 447.469 112.245 447.365 112.22 447.279C112.202 447.22 112.132 447.208 112.1 447.26C112.039 447.355 111.979 447.451 111.918 447.546C111.89 447.589 111.756 447.832 111.737 447.684C111.707 447.458 111.747 447.203 111.79 446.983C111.806 446.9 111.688 446.861 111.671 446.945C111.632 447.145 111.557 447.333 111.445 447.498C111.36 447.623 111.169 447.884 111.001 447.838C110.9 447.811 110.884 447.677 110.87 447.584C110.852 447.471 110.848 447.356 110.852 447.242C110.863 447.011 110.922 446.786 111.02 446.582C111.046 446.526 110.971 446.476 110.943 446.532C110.824 446.77 110.756 447.034 110.746 447.305C110.739 447.501 110.735 447.859 110.939 447.949C111.143 448.038 111.357 447.809 111.475 447.659C111.524 447.596 111.567 447.53 111.606 447.462V447.464C111.602 447.576 111.572 447.773 111.671 447.85C111.762 447.922 111.871 447.856 111.931 447.773C112.006 447.669 112.073 447.559 112.141 447.448C112.184 447.548 112.244 447.639 112.345 447.673C112.46 447.714 112.591 447.666 112.624 447.532C112.637 447.482 112.575 447.453 112.547 447.496Z" fill="#2A164A"/>
<path opacity="0.36" d="M113.757 447.734C113.738 447.694 113.697 447.661 113.668 447.63C113.634 447.594 113.6 447.557 113.566 447.521C113.554 447.507 113.54 447.494 113.528 447.48C113.538 447.449 113.549 447.421 113.557 447.39C113.608 447.213 113.647 447.033 113.645 446.847C113.645 446.802 113.584 446.802 113.581 446.845C113.566 447.025 113.515 447.199 113.449 447.367C113.447 447.374 113.444 447.381 113.441 447.387C113.417 447.36 113.392 447.333 113.366 447.308L112.958 446.893C112.919 446.852 112.86 446.913 112.897 446.957C113.025 447.109 113.153 447.26 113.279 447.412C113.313 447.451 113.347 447.491 113.381 447.528C113.37 447.553 113.36 447.58 113.349 447.607C113.312 447.693 113.268 447.784 113.243 447.873C113.221 447.95 113.327 448.004 113.362 447.931C113.404 447.847 113.436 447.752 113.467 447.662C113.47 447.653 113.472 447.644 113.475 447.635L113.565 447.736C113.598 447.773 113.63 447.823 113.676 447.839C113.736 447.863 113.781 447.789 113.757 447.734Z" fill="#2A164A"/>
<path opacity="0.36" d="M117.228 446.961C117.211 446.929 117.173 446.945 117.168 446.977C117.151 447.122 117.072 447.299 116.93 447.337C116.763 447.381 116.616 447.211 116.622 447.038C116.624 446.943 116.487 446.916 116.465 447.011C116.43 447.168 116.374 447.428 116.19 447.442C115.926 447.462 115.888 447.099 115.906 446.895C115.914 446.812 115.79 446.793 115.773 446.873C115.725 447.099 115.595 447.344 115.385 447.431C115.075 447.56 115.035 447.134 115.049 446.907C115.053 446.832 114.939 446.809 114.924 446.886C114.923 446.891 114.923 446.898 114.921 446.904C114.921 446.906 114.921 446.907 114.921 446.909C114.914 446.956 114.912 447.007 114.912 447.061C114.894 447.176 114.852 447.296 114.774 447.355C114.743 447.378 114.684 447.401 114.66 447.378C114.638 447.358 114.646 447.276 114.648 447.24C114.652 447.138 114.682 447.043 114.729 446.956C114.748 446.922 114.702 446.893 114.682 446.923C114.607 447.036 114.433 447.507 114.679 447.53C114.785 447.541 114.88 447.408 114.933 447.324C114.937 447.317 114.942 447.308 114.946 447.301C114.996 447.48 115.105 447.625 115.303 447.609C115.514 447.589 115.676 447.426 115.782 447.231C115.824 447.421 115.935 447.584 116.143 447.609C116.341 447.632 116.462 447.487 116.537 447.313C116.624 447.455 116.775 447.548 116.94 447.517C117.17 447.476 117.358 447.194 117.228 446.961Z" fill="#2A164A"/>
<path opacity="0.36" d="M109.935 439.567C109.927 439.529 109.884 439.51 109.852 439.529C108.862 440.165 107.865 440.798 106.896 441.474C106.862 441.438 106.826 441.406 106.785 441.381C106.77 441.372 106.747 441.376 106.739 441.394C106.724 441.426 106.718 441.454 106.737 441.487C106.748 441.505 106.773 441.494 106.77 441.472V441.471C106.786 441.49 106.802 441.508 106.819 441.528C106.729 441.59 106.638 441.651 106.549 441.716C106.525 441.734 106.545 441.775 106.571 441.759C106.668 441.698 106.763 441.635 106.86 441.574C106.898 441.619 106.934 441.664 106.967 441.716C107.031 441.818 107.083 441.929 107.118 442.045C107.14 442.118 107.163 442.202 107.174 442.286C106.764 442.252 106.356 442.204 105.947 442.147C105.888 442.14 105.872 442.247 105.93 442.259C106.341 442.342 106.758 442.395 107.178 442.428C107.171 442.514 107.147 442.592 107.085 442.653C107.073 442.666 107.077 442.692 107.095 442.696C107.209 442.725 107.261 442.592 107.275 442.492C107.277 442.474 107.277 442.454 107.277 442.435C108.246 442.501 109.227 442.447 110.176 442.306C110.202 442.302 110.222 442.27 110.222 442.243C110.209 441.342 110.118 440.445 109.935 439.567ZM108.024 442.327C107.774 442.326 107.525 442.31 107.276 442.292C107.268 442.22 107.251 442.149 107.234 442.081C107.196 441.941 107.138 441.809 107.064 441.689C107.028 441.632 106.987 441.573 106.943 441.519C107.908 440.905 108.865 440.275 109.839 439.678C109.987 440.504 110.08 441.342 110.101 442.183C109.413 442.286 108.719 442.335 108.024 442.327Z" fill="#2A164A"/>
<path opacity="0.36" d="M111.384 440.401C111.319 440.406 111.256 440.444 111.198 440.471C111.137 440.499 111.077 440.53 111.016 440.56C110.892 440.623 110.758 440.678 110.644 440.757C110.626 440.769 110.636 440.803 110.659 440.796C110.788 440.757 110.912 440.687 111.036 440.628C111.097 440.599 111.16 440.571 111.22 440.54C111.279 440.51 111.35 440.483 111.398 440.433C111.407 440.424 111.401 440.401 111.384 440.401Z" fill="#2A164A"/>
<path opacity="0.36" d="M111.864 440.127C111.822 440.097 111.766 440.111 111.72 440.116C111.659 440.125 111.596 440.134 111.535 440.141C111.474 440.15 111.411 440.159 111.35 440.166C111.319 440.17 111.289 440.175 111.258 440.182C111.226 440.19 111.188 440.191 111.161 440.211C111.141 440.227 111.143 440.256 111.167 440.267C111.19 440.277 111.215 440.274 111.24 440.272C111.267 440.272 111.293 440.272 111.32 440.268C111.373 440.263 111.426 440.258 111.479 440.252L111.639 440.236C111.688 440.231 111.739 440.22 111.788 440.222H111.79C111.783 440.243 111.773 440.263 111.765 440.284C111.746 440.329 111.724 440.372 111.7 440.415C111.677 440.456 111.652 440.494 111.625 440.531C111.611 440.551 111.595 440.569 111.583 440.589C111.568 440.61 111.561 440.633 111.55 440.658C111.535 440.694 111.579 440.721 111.606 440.707C111.66 440.678 111.692 440.637 111.728 440.585C111.762 440.537 111.792 440.487 111.82 440.435C111.847 440.383 111.87 440.331 111.89 440.275C111.911 440.225 111.913 440.163 111.864 440.127Z" fill="#2A164A"/>
<path opacity="0.36" d="M114.588 439.866C114.54 439.855 114.493 439.85 114.445 439.837C114.393 439.823 114.351 439.794 114.302 439.776C114.245 439.755 114.191 439.764 114.142 439.803C114.089 439.846 114.059 439.912 114.015 439.966C113.908 440.097 113.808 439.948 113.759 439.835C113.735 439.778 113.659 439.809 113.656 439.864C113.649 439.963 113.543 439.995 113.475 439.952C113.41 439.912 113.383 439.835 113.381 439.757C113.38 439.7 113.312 439.676 113.282 439.726C113.214 439.839 113.135 439.946 113.041 440.034C112.969 440.102 112.891 440.05 112.863 439.964C112.838 439.891 112.843 439.812 112.868 439.741C112.886 439.671 112.794 439.644 112.77 439.708C112.74 439.83 112.682 439.939 112.591 440.02C112.526 440.077 112.404 440.12 112.353 440.023C112.317 439.957 112.312 439.839 112.319 439.762C112.32 439.753 112.307 439.751 112.305 439.76C112.273 439.866 112.225 439.957 112.275 440.07C112.311 440.149 112.385 440.202 112.468 440.193C112.584 440.183 112.681 440.095 112.753 439.989C112.774 440.091 112.83 440.179 112.934 440.2C113.081 440.233 113.215 440.05 113.306 439.9C113.34 439.996 113.403 440.077 113.506 440.093C113.593 440.107 113.674 440.063 113.721 439.991C113.81 440.122 113.943 440.22 114.079 440.077C114.147 440.005 114.182 439.857 114.294 439.907C114.399 439.955 114.489 439.995 114.596 439.927C114.615 439.914 114.615 439.873 114.588 439.866Z" fill="#2A164A"/>
<path opacity="0.36" d="M114.781 440.615C114.694 440.587 114.597 440.608 114.505 440.585C114.41 440.562 114.317 440.528 114.221 440.517C114.129 440.506 114.041 440.524 113.962 440.574C113.913 440.605 113.719 440.771 113.691 440.631C113.682 440.583 113.625 440.571 113.593 440.601C113.504 440.687 113.395 440.784 113.267 440.771C113.154 440.76 113.049 440.614 113.162 440.519C113.206 440.483 113.15 440.399 113.105 440.435C112.972 440.54 112.994 440.759 113.134 440.846C113.302 440.952 113.478 440.859 113.617 440.742C113.659 440.791 113.724 440.816 113.789 440.809C113.92 440.796 114.004 440.662 114.135 440.648C114.26 440.635 114.382 440.694 114.504 440.721C114.602 440.742 114.733 440.767 114.8 440.667C114.814 440.649 114.801 440.621 114.781 440.615Z" fill="#2A164A"/>
</g>
<path d="M112.981 455.028H101C101.173 454.086 101.815 451 102.79 450.31C103.602 449.737 104.576 449.242 105.894 449.058C105.983 449.043 106.07 449.034 106.161 449.025C106.282 449.011 106.403 448.999 106.531 448.993C106.531 448.993 106.531 448.993 106.535 448.993C106.906 448.974 107.302 448.974 107.726 449.004H107.743C107.829 449.009 107.914 449.018 108 449.029C108.08 449.034 108.159 449.047 108.239 449.058C110.36 449.365 112.2 450.686 112.557 452.546C112.612 452.831 112.659 453.088 112.7 453.319V453.323C112.868 454.237 112.945 454.766 112.981 455.028Z" fill="#69A0F4"/>
<path d="M109.003 455.027H105.993C105.913 454.188 105.708 451.516 105.682 451.049C105.629 450.07 105.668 449.553 105.867 449.292C105.94 449.194 106.038 449.131 106.161 449.093C106.292 449.056 106.455 449.045 106.653 449.05C106.81 449.054 106.988 449.068 107.193 449.083C107.297 449.092 107.395 449.101 107.482 449.111C107.69 449.135 107.861 449.163 108 449.204C108.154 449.247 108.272 449.303 108.364 449.371C108.607 449.55 108.661 449.832 108.728 450.281C108.831 451.017 108.993 454.144 109.003 455.027Z" fill="#8B68B4"/>
<path d="M108.15 447.288H105.981V449.313H108.15V447.288Z" fill="#E79F8B"/>
<path d="M113.22 447.646C113.179 446.907 113.289 446.143 113.642 445.503C113.723 445.356 113.907 445.202 114.024 445.32C114.075 445.372 114.082 445.455 114.083 445.528C114.099 446.099 114.048 446.669 113.931 447.227C114.017 447.038 114.248 446.939 114.439 447.004C114.63 447.068 114.76 447.283 114.747 447.492C114.796 447.279 115.107 447.254 115.258 447.406C115.408 447.558 115.432 447.798 115.434 448.018C115.509 447.911 115.683 447.941 115.765 448.045C115.846 448.149 115.856 448.292 115.856 448.426C115.853 448.836 115.772 449.253 115.565 449.598C115.359 449.945 115.012 450.213 114.622 450.254C113.389 450.387 113.268 448.526 113.22 447.646Z" fill="#E79F8B"/>
<path d="M113.738 449.82C113.738 449.82 112.713 449.213 113.07 448.537C113.427 447.861 114.473 448.211 114.251 448.607C114.029 449.004 113.538 448.932 113.538 448.932L113.738 449.82Z" fill="#E79F8B"/>
<path d="M105.909 448.761C106.024 448.748 106.586 449.197 107.19 449.165C107.793 449.133 108.094 448.841 108.184 448.745C108.273 448.648 108.769 449.682 108.694 449.795C108.619 449.907 108.398 450.349 108.178 450.269C107.957 450.188 107.335 449.41 107.335 449.41C107.335 449.41 106.771 450.351 106.56 450.351C106.35 450.351 105.67 450.02 105.634 449.503C105.598 448.986 105.762 448.777 105.909 448.761Z" fill="white"/>
<path d="M115.723 449.82L115.678 455.027H112.408L112.701 453.323V453.321L113.314 449.748L113.641 449.757H113.644L113.675 449.761H113.724L115.408 449.813L115.723 449.82Z" fill="#69A0F4"/>
<path d="M109.547 441.859C109.487 441.814 109.412 441.819 109.337 441.894C109.273 441.959 109.207 442.077 109.183 442.165C109.097 442.469 109.13 442.805 109.178 443.097C109.222 443.365 109.294 443.632 109.413 443.862C109.419 443.871 109.424 443.882 109.429 443.891C109.487 443.998 109.555 444.097 109.637 444.184C109.654 444.19 109.67 444.197 109.689 444.197C109.745 444.195 109.8 444.156 109.843 444.113C110.135 443.819 110.07 443.353 110.015 443.013C109.95 442.614 109.81 442.24 109.602 441.92C109.586 441.894 109.567 441.873 109.547 441.859Z" fill="#2A164A"/>
<path d="M109.933 444.485C109.933 446.43 109.639 448.097 107.692 448.228C105.181 448.396 104.157 446.428 104.157 444.485C104.157 442.542 105.449 440.966 107.046 440.966C108.641 440.964 109.933 442.54 109.933 444.485Z" fill="#E79F8B"/>
<path d="M106.863 446.251C106.937 446.12 107.326 446.152 107.784 446.099C108.302 446.038 108.663 445.934 108.754 445.986C108.925 446.084 108.572 446.875 107.904 446.941C107.425 446.99 106.73 446.489 106.863 446.251Z" fill="white"/>
<path d="M106.378 441.982C106.909 442.317 107.437 442.666 108.01 442.911C108.663 443.19 109.378 443.283 109.986 442.828C110.126 442.723 110.301 442.503 110.087 442.387C109.947 442.31 109.76 442.329 109.608 442.315C109.781 442.331 109.966 442.292 110.101 442.179C110.236 442.066 110.316 441.873 110.27 441.701C110.236 441.576 110.142 441.476 110.043 441.395C109.738 441.15 109.355 441.029 108.976 440.95C108.909 440.936 108.843 440.925 108.776 440.912C108.829 440.835 108.878 440.75 108.863 440.658C108.846 440.562 108.762 440.496 108.68 440.442C108.031 440.027 107.21 440.002 106.436 440C105.891 440 105.32 440.009 104.832 440.265C104.605 440.383 104.373 440.581 104.347 440.835C103.819 440.878 103.364 441.304 103.185 441.807C103.005 442.31 103.067 442.871 103.248 443.37C103.429 443.87 103.651 444.433 103.826 444.539C104 444.644 104.009 444.519 104.219 444.625C104.429 444.73 104.443 445.043 104.603 445.056C104.764 445.068 104.759 444.621 104.802 444.413C104.889 443.993 104.885 443.558 104.99 443.141C105.101 442.691 105.342 442.267 105.675 441.921C105.728 441.866 105.788 441.81 105.856 441.778C105.873 441.769 106.049 441.814 106.079 441.823C106.178 441.852 106.272 441.916 106.359 441.971C106.366 441.973 106.373 441.979 106.378 441.982Z" fill="#2A164A"/>
<path d="M104.18 444.607C103.971 444.209 103.658 443.941 103.352 444.217C103.253 444.306 103.202 444.476 103.197 444.646C103.193 444.816 103.231 444.988 103.284 445.147C103.417 445.548 103.653 445.902 103.949 446.05C104.06 446.106 104.19 446.129 104.282 446.038C104.409 445.914 104.432 445.66 104.422 445.451C104.41 445.192 104.318 444.871 104.18 444.607Z" fill="#E79F8B"/>
<path d="M103.426 444.633C103.45 444.59 103.487 444.562 103.525 444.553C103.615 444.53 103.711 444.594 103.781 444.682C103.855 444.773 103.916 444.889 103.971 445.004C104.027 445.122 104.07 445.254 104.094 445.392C104.099 445.419 104.067 445.429 104.062 445.403C104.01 445.181 103.903 444.975 103.786 444.809C103.769 444.784 103.749 444.759 103.728 444.737C103.703 444.844 103.701 444.963 103.721 445.077C103.745 445.215 103.795 445.331 103.851 445.449C103.856 445.462 103.848 445.476 103.839 445.465C103.68 445.279 103.617 444.954 103.694 444.701C103.658 444.671 103.621 444.648 103.58 444.644C103.515 444.639 103.439 444.694 103.421 444.785C103.417 444.802 103.397 444.796 103.395 444.778C103.395 444.723 103.402 444.675 103.426 444.633Z" fill="#391B5C"/>
<path d="M110.23 443.657C110.164 443.499 110.015 443.41 109.866 443.413C109.704 443.419 109.54 443.43 109.374 443.437C109.09 443.449 108.798 443.453 108.506 443.483C108.296 443.505 108.128 443.605 108.114 443.857C108.114 443.861 108.114 443.864 108.114 443.866L108.113 443.864C108.024 443.816 107.925 443.809 107.829 443.834C107.733 443.861 107.649 443.916 107.574 443.988L107.572 443.989C107.567 443.941 107.564 443.891 107.557 443.843C107.521 443.589 107.337 443.496 107.113 443.485C106.791 443.471 106.463 443.485 106.131 443.487C105.933 443.489 105.733 443.487 105.532 443.492C105.342 443.496 105.162 443.608 105.092 443.791C105.053 443.895 105.046 444.009 105.055 444.122C105.051 444.122 105.046 444.124 105.043 444.124C104.991 444.131 104.938 444.14 104.887 444.147C104.793 444.161 104.701 444.176 104.607 444.188C104.514 444.202 104.422 444.22 104.328 444.238C104.28 444.247 104.227 444.252 104.185 444.274C104.155 444.288 104.12 444.326 104.142 444.363C104.186 444.435 104.316 444.403 104.386 444.397C104.477 444.39 104.567 444.383 104.658 444.371C104.749 444.358 104.839 444.347 104.93 444.335C104.976 444.328 105.022 444.322 105.067 444.315C105.072 444.315 105.075 444.313 105.08 444.313C105.132 444.65 105.195 444.997 105.304 445.312C105.349 445.442 105.407 445.569 105.538 445.623C105.661 445.671 105.807 445.657 105.935 445.655C106.102 445.651 106.27 445.643 106.436 445.625C106.735 445.594 107.044 445.557 107.325 445.465C107.593 445.38 107.622 445.129 107.617 444.868C107.612 444.642 107.608 444.41 107.593 444.181C107.672 444.118 107.755 444.063 107.846 444.034C107.878 444.023 107.907 444.018 107.942 444.02C107.959 444.02 107.959 444.02 107.976 444.025C107.983 444.027 107.988 444.029 107.995 444.031C107.998 444.032 108.002 444.032 108.005 444.034C107.998 444.031 107.998 444.031 108.005 444.034C108.019 444.041 108.031 444.049 108.043 444.057C108.044 444.059 108.046 444.059 108.046 444.061C108.053 444.066 108.058 444.074 108.063 444.081C108.065 444.083 108.075 444.099 108.07 444.09C108.065 444.081 108.077 444.104 108.078 444.106C108.082 444.111 108.085 444.118 108.08 444.108C108.089 444.125 108.09 444.136 108.101 444.15C108.104 444.156 108.109 444.158 108.114 444.161C108.119 444.396 108.137 444.632 108.152 444.863C108.169 445.118 108.219 445.358 108.482 445.403C108.748 445.448 109.029 445.439 109.289 445.422C109.431 445.414 109.571 445.399 109.709 445.38C109.813 445.363 109.93 445.358 110.024 445.297C110.123 445.233 110.159 445.113 110.183 444.995C110.248 444.68 110.27 444.34 110.283 444.018C110.289 443.9 110.28 443.769 110.23 443.657Z" fill="black"/>
<path d="M107.426 445.058C107.412 445.193 107.35 445.253 107.227 445.283C106.767 445.397 106.248 445.462 105.754 445.435C105.583 445.426 105.54 445.342 105.485 445.188C105.436 445.052 105.397 444.913 105.366 444.771C105.316 444.546 105.246 444.315 105.258 444.081C105.273 443.769 105.402 443.723 105.682 443.721C105.817 443.721 105.949 443.719 106.082 443.719C106.344 443.718 106.603 443.719 106.858 443.714C106.962 443.712 107.072 443.701 107.174 443.714C107.296 443.728 107.345 443.773 107.361 443.904C107.393 444.167 107.407 444.433 107.419 444.696C107.424 444.816 107.437 444.939 107.426 445.058Z" fill="white"/>
<path d="M110.092 444.533C110.078 444.66 110.058 444.787 110.03 444.913C109.998 445.056 109.971 445.134 109.836 445.163C109.432 445.251 108.978 445.263 108.552 445.217C108.436 445.204 108.371 445.156 108.347 445.025C108.326 444.913 108.326 444.791 108.321 444.676C108.309 444.419 108.299 444.158 108.307 443.9C108.311 443.773 108.354 443.726 108.466 443.703C108.562 443.685 108.661 443.687 108.757 443.683C108.984 443.673 109.21 443.657 109.432 443.642C109.542 443.635 109.653 443.628 109.76 443.623C109.984 443.608 110.087 443.644 110.123 443.916C110.15 444.124 110.113 444.331 110.092 444.533Z" fill="white"/>
<path d="M466.188 547L476.096 549.312C472.52 562.347 480.636 575.523 494.191 578.682C503.952 580.949 513.911 577.417 520.063 570.393C522.458 567.657 524.269 564.402 525.277 560.748L535.185 563.053C533.778 568.177 531.229 572.756 527.871 576.589C519.241 586.446 505.268 591.403 491.572 588.218C472.552 583.781 461.161 565.294 466.188 547Z" fill="url(#paint8_linear_276_3)"/>
<path d="M477.682 556.324L476.096 549.305C475.043 553.139 475.005 556.991 475.814 560.594L477.4 567.612C476.591 564.01 476.629 560.164 477.682 556.324Z" fill="url(#paint9_linear_276_3)"/>
<path d="M527.871 576.576C519.241 586.433 505.268 591.39 491.572 588.205C478.145 585.084 468.526 574.958 465.79 562.841L467.376 569.86C470.112 581.977 479.731 592.103 493.158 595.224C506.854 598.408 520.827 593.451 529.457 583.595C532.815 579.761 535.364 575.183 536.771 570.059L535.185 563.04C533.778 568.164 531.229 572.743 527.871 576.576Z" fill="url(#paint10_linear_276_3)"/>
<path d="M482.559 208H479V211.559H482.559V208Z" fill="url(#paint11_linear_276_3)"/>
<path d="M496.117 208H492.559V211.559H496.117V208Z" fill="url(#paint12_linear_276_3)"/>
<path d="M509.676 208H506.117V211.559H509.676V208Z" fill="url(#paint13_linear_276_3)"/>
<path d="M523.234 208H519.676V211.559H523.234V208Z" fill="url(#paint14_linear_276_3)"/>
<path d="M536.793 208H533.234V211.559H536.793V208Z" fill="url(#paint15_linear_276_3)"/>
<path d="M482.559 220.559H479V224.117H482.559V220.559Z" fill="url(#paint16_linear_276_3)"/>
<path d="M496.117 220.559H492.559V224.117H496.117V220.559Z" fill="url(#paint17_linear_276_3)"/>
<path d="M509.676 220.559H506.117V224.117H509.676V220.559Z" fill="url(#paint18_linear_276_3)"/>
<path d="M523.234 220.559H519.676V224.117H523.234V220.559Z" fill="url(#paint19_linear_276_3)"/>
<path d="M536.793 220.559H533.234V224.117H536.793V220.559Z" fill="url(#paint20_linear_276_3)"/>
<path d="M482.559 233.117H479V236.676H482.559V233.117Z" fill="url(#paint21_linear_276_3)"/>
<path d="M496.117 233.117H492.559V236.676H496.117V233.117Z" fill="url(#paint22_linear_276_3)"/>
<path d="M509.676 233.117H506.117V236.676H509.676V233.117Z" fill="url(#paint23_linear_276_3)"/>
<path d="M523.234 233.117H519.676V236.676H523.234V233.117Z" fill="url(#paint24_linear_276_3)"/>
<path d="M536.793 233.117H533.234V236.676H536.793V233.117Z" fill="url(#paint25_linear_276_3)"/>
<path d="M14.44 138.125V134.323H9.12467V129H5.31534V134.323H0V138.125H5.31534V143.44H9.12467V138.125H14.44Z" fill="url(#paint26_linear_276_3)"/>
<path d="M38.8241 138.125H44.1469V134.323H38.8241V129H35.0222V134.323H29.7068V138.125H35.0222V143.44H38.8241V138.125Z" fill="url(#paint27_linear_276_3)"/>
<g opacity="0.8">
<path d="M108.167 71C112.789 71 116.536 70.1175 116.536 69.0289C116.536 67.9403 112.789 67.0579 108.167 67.0579C103.545 67.0579 99.7985 67.9403 99.7985 69.0289C99.7985 70.1175 103.545 71 108.167 71Z" fill="#2A164A"/>
<path d="M93 60.5009L109.54 55L125 62.0597V62.2595L109.001 66.187L93 60.7008V60.5009Z" fill="#8B68B4"/>
<path d="M93 60.7008L109.54 55.1978L125 62.2595L109.001 66.3847L93 60.7008Z" fill="#2A164A"/>
<path d="M108.167 58.9885C103.546 58.9885 99.7985 59.872 99.7985 60.9596V69.029C99.7985 67.9394 103.544 67.0579 108.167 67.0579C112.79 67.0579 116.536 67.9415 116.536 69.029V60.9596C116.536 59.872 112.788 58.9885 108.167 58.9885Z" fill="#8B68B4"/>
<path d="M112.878 64.6197H112.391V56.2915L112.878 56.504V64.6197Z" fill="#FFC200"/>
<path d="M113.497 66.6979H111.746V63.7382C111.746 63.248 112.139 62.8525 112.622 62.8525C113.106 62.8525 113.497 63.2501 113.497 63.7382V66.6979V66.6979Z" fill="#FFD400"/>
</g>
<defs>
<linearGradient id="paint0_linear_276_3" x1="291.562" y1="141.475" x2="291.563" y2="412.537" gradientUnits="userSpaceOnUse">
<stop stop-color="#E9CCFF"/>
<stop offset="1" stop-color="#A836FF"/>
</linearGradient>
<linearGradient id="paint1_linear_276_3" x1="291.563" y1="103.014" x2="291.563" y2="451.914" gradientUnits="userSpaceOnUse">
<stop stop-color="#E9CCFF"/>
<stop offset="1" stop-color="#A836FF"/>
</linearGradient>
<linearGradient id="paint2_linear_276_3" x1="291.562" y1="72.7944" x2="291.562" y2="481.218" gradientUnits="userSpaceOnUse">
<stop stop-color="#E9CCFF"/>
<stop offset="1" stop-color="#A836FF"/>
</linearGradient>
<linearGradient id="paint3_linear_276_3" x1="502.271" y1="561" x2="502.271" y2="545.047" gradientUnits="userSpaceOnUse">
<stop stop-color="#A734FF"/>
<stop offset="1" stop-color="#D092FF"/>
</linearGradient>
<linearGradient id="paint4_linear_276_3" x1="108.5" y1="136" x2="108.5" y2="22.1992" gradientUnits="userSpaceOnUse">
<stop stop-color="#A734FF"/>
<stop offset="1" stop-color="#D092FF"/>
</linearGradient>
<linearGradient id="paint5_linear_276_3" x1="109" y1="576" x2="109" y2="379" gradientUnits="userSpaceOnUse">
<stop stop-color="#2F61E6"/>
<stop offset="1" stop-color="#96D1FF"/>
</linearGradient>
<linearGradient id="paint6_linear_276_3" x1="476.282" y1="23" x2="476.282" y2="140.216" gradientUnits="userSpaceOnUse">
<stop stop-color="#A590F9"/>
<stop offset="1" stop-color="#6A45FB"/>
</linearGradient>
<linearGradient id="paint7_linear_276_3" x1="573.5" y1="317.366" x2="573.5" y2="292.904" gradientUnits="userSpaceOnUse">
<stop stop-color="#2F61E6"/>
<stop offset="1" stop-color="#43ADFF"/>
</linearGradient>
<linearGradient id="paint8_linear_276_3" x1="488.753" y1="531.114" x2="543.2" y2="680.547" gradientUnits="userSpaceOnUse">
<stop stop-color="#E0BDF7"/>
<stop offset="1" stop-color="#8757B0"/>
</linearGradient>
<linearGradient id="paint9_linear_276_3" x1="515.474" y1="605.571" x2="472.651" y2="553.469" gradientUnits="userSpaceOnUse">
<stop stop-color="#AB83C9"/>
<stop offset="1" stop-color="#7E55A1"/>
</linearGradient>
<linearGradient id="paint10_linear_276_3" x1="524.846" y1="597.869" x2="482.022" y2="545.767" gradientUnits="userSpaceOnUse">
<stop stop-color="#AB83C9"/>
<stop offset="1" stop-color="#7E55A1"/>
</linearGradient>
<linearGradient id="paint11_linear_276_3" x1="554.464" y1="252.706" x2="456.564" y2="195.669" gradientUnits="userSpaceOnUse">
<stop stop-color="#E0BDF7"/>
<stop offset="1" stop-color="#8757B0"/>
</linearGradient>
<linearGradient id="paint12_linear_276_3" x1="554.884" y1="245.051" x2="456.983" y2="188.013" gradientUnits="userSpaceOnUse">
<stop stop-color="#E0BDF7"/>
<stop offset="1" stop-color="#8757B0"/>
</linearGradient>
<linearGradient id="paint13_linear_276_3" x1="555.302" y1="237.396" x2="457.402" y2="180.358" gradientUnits="userSpaceOnUse">
<stop stop-color="#E0BDF7"/>
<stop offset="1" stop-color="#8757B0"/>
</linearGradient>
<linearGradient id="paint14_linear_276_3" x1="555.722" y1="229.74" x2="457.822" y2="172.703" gradientUnits="userSpaceOnUse">
<stop stop-color="#E0BDF7"/>
<stop offset="1" stop-color="#8757B0"/>
</linearGradient>
<linearGradient id="paint15_linear_276_3" x1="556.141" y1="222.085" x2="458.24" y2="165.047" gradientUnits="userSpaceOnUse">
<stop stop-color="#E0BDF7"/>
<stop offset="1" stop-color="#8757B0"/>
</linearGradient>
<linearGradient id="paint16_linear_276_3" x1="548.787" y1="261.958" x2="450.887" y2="204.921" gradientUnits="userSpaceOnUse">
<stop stop-color="#E0BDF7"/>
<stop offset="1" stop-color="#8757B0"/>
</linearGradient>
<linearGradient id="paint17_linear_276_3" x1="549.207" y1="254.303" x2="451.306" y2="197.266" gradientUnits="userSpaceOnUse">
<stop stop-color="#E0BDF7"/>
<stop offset="1" stop-color="#8757B0"/>
</linearGradient>
<linearGradient id="paint18_linear_276_3" x1="549.625" y1="246.647" x2="451.726" y2="189.61" gradientUnits="userSpaceOnUse">
<stop stop-color="#E0BDF7"/>
<stop offset="1" stop-color="#8757B0"/>
</linearGradient>
<linearGradient id="paint19_linear_276_3" x1="550.044" y1="238.992" x2="452.145" y2="181.955" gradientUnits="userSpaceOnUse">
<stop stop-color="#E0BDF7"/>
<stop offset="1" stop-color="#8757B0"/>
</linearGradient>
<linearGradient id="paint20_linear_276_3" x1="550.464" y1="231.337" x2="452.563" y2="174.299" gradientUnits="userSpaceOnUse">
<stop stop-color="#E0BDF7"/>
<stop offset="1" stop-color="#8757B0"/>
</linearGradient>
<linearGradient id="paint21_linear_276_3" x1="543.11" y1="271.21" x2="445.21" y2="214.173" gradientUnits="userSpaceOnUse">
<stop stop-color="#E0BDF7"/>
<stop offset="1" stop-color="#8757B0"/>
</linearGradient>
<linearGradient id="paint22_linear_276_3" x1="543.53" y1="263.555" x2="445.629" y2="206.517" gradientUnits="userSpaceOnUse">
<stop stop-color="#E0BDF7"/>
<stop offset="1" stop-color="#8757B0"/>
</linearGradient>
<linearGradient id="paint23_linear_276_3" x1="543.949" y1="255.9" x2="446.048" y2="198.862" gradientUnits="userSpaceOnUse">
<stop stop-color="#E0BDF7"/>
<stop offset="1" stop-color="#8757B0"/>
</linearGradient>
<linearGradient id="paint24_linear_276_3" x1="544.368" y1="248.244" x2="446.467" y2="191.207" gradientUnits="userSpaceOnUse">
<stop stop-color="#E0BDF7"/>
<stop offset="1" stop-color="#8757B0"/>
</linearGradient>
<linearGradient id="paint25_linear_276_3" x1="544.787" y1="240.589" x2="446.885" y2="183.551" gradientUnits="userSpaceOnUse">
<stop stop-color="#E0BDF7"/>
<stop offset="1" stop-color="#8757B0"/>
</linearGradient>
<linearGradient id="paint26_linear_276_3" x1="47.8734" y1="146.218" x2="-31.288" y2="126.752" gradientUnits="userSpaceOnUse">
<stop stop-color="#E0BDF7"/>
<stop offset="1" stop-color="#8757B0"/>
</linearGradient>
<linearGradient id="paint27_linear_276_3" x1="49.5673" y1="139.33" x2="-29.5946" y2="119.864" gradientUnits="userSpaceOnUse">
<stop stop-color="#E0BDF7"/>
<stop offset="1" stop-color="#8757B0"/>
</linearGradient>
</defs>
</svg>
